<?xml version="1.0" encoding="utf-8"?>
<!-- Generator: Adobe Illustrator 25.0.1, SVG Export Plug-In . SVG Version: 6.00 Build 0)  -->
<svg version="1.1" id="Layer_1" xmlns="http://www.w3.org/2000/svg" xmlns:xlink="http://www.w3.org/1999/xlink" x="0px" y="0px"
	 viewBox="0 0 75 93.8" style="enable-background:new 0 0 75 93.8;" xml:space="preserve">
<style type="text/css">
	.st0{fill:#E95420;}
</style>
<g>
	<g id="XMLID_1_">
		<g>
			<path class="st0" d="M44.1,8.5c4.5,0,8.2,3.5,8.2,7.7c0,4.3-3.7,7.7-8.2,7.7c-1.4,0-2.7-0.3-3.8-0.9c1,3.9,2.4,7.9-0.2,11.7
				l0.1,1l7.1,7.3c1.1,1.1,1.1,2.9,0,4c-1.1,1.1-2.9,1.1-4,0l-4.6-4.8c0,1.8,0.3,3.6,0.6,5.2l2.1,11l-1.2,0l1.2,8
				c0.1,0.6,0,1.1-0.1,1.7h-7.3c0-0.1-0.1-0.3-0.1-0.5l-1.4-9.1l-2.1,0v8.6c0,0.3,0,0.7-0.1,0.9h-7.4c-0.1-0.3-0.1-0.6-0.1-0.9v-8.5
				l-0.8,0l0-21.7c0-8.7,5.1-16.5,12.2-18.2c0.8-0.2,1.5-0.3,2.1-0.3c-0.2-0.7-0.4-1.5-0.4-2.3C35.9,12,39.6,8.5,44.1,8.5z"/>
			<path class="st0" d="M50.2,40c1.5,1.2,2.1,2.5,2.2,3.8c0,0.3-0.2,0.5-0.5,0.5c-0.3,0-0.5-0.2-0.5-0.5c0-1-0.5-2-1.8-3.1
				c-0.2-0.2-0.2-0.5-0.1-0.7C49.7,39.8,50,39.8,50.2,40z"/>
			<path class="st0" d="M48.4,6.8c1.9,0.6,3.4,2,4.6,3.8c0.1,0.2,0.1,0.5-0.1,0.7c-0.2,0.2-0.5,0.1-0.7-0.1
				c-1.2-1.7-2.5-2.9-4.1-3.4c-0.2-0.1-0.4-0.4-0.3-0.6C47.9,6.9,48.2,6.7,48.4,6.8z"/>
			<path class="st0" d="M48.9,43.5c-0.3-0.6-0.9-1.3-1.8-1.9c-0.2-0.1-0.3-0.4-0.1-0.7c0.1-0.2,0.4-0.3,0.7-0.1
				c1,0.7,1.7,1.5,2.1,2.3c0.4,0.8,0.5,1.6,0.3,2.4c-0.1,0.3-0.3,0.4-0.6,0.3c-0.3-0.1-0.4-0.3-0.4-0.6
				C49.3,44.7,49.3,44.1,48.9,43.5z"/>
			<path class="st0" d="M24.2,21.7c1.4-2.4,3.7-4,6.6-5.2c0.2-0.1,0.5,0,0.6,0.3c0.1,0.2,0,0.5-0.3,0.6c-2.7,1.1-4.9,2.7-6.1,4.8
				c-0.1,0.2-0.4,0.3-0.6,0.2C24.1,22.2,24,21.9,24.2,21.7z"/>
			<path class="st0" d="M23.3,18.5c1.2-1.5,2.7-2.7,4.6-3.6c0.2-0.1,0.5,0,0.6,0.2c0.1,0.2,0,0.5-0.2,0.6c-1.8,0.9-3.2,2-4.3,3.4
				c-0.2,0.2-0.5,0.2-0.7,0.1C23.2,19,23.1,18.7,23.3,18.5z"/>
		</g>
		<g>
		</g>
	</g>
</g>
</svg>
