<?xml version="1.0" encoding="utf-8"?>
<!-- Generator: Adobe Illustrator 25.0.1, SVG Export Plug-In . SVG Version: 6.00 Build 0)  -->
<svg version="1.1" id="Layer_1" xmlns="http://www.w3.org/2000/svg" xmlns:xlink="http://www.w3.org/1999/xlink" x="0px" y="0px"
	 viewBox="0 0 1024 1280" style="enable-background:new 0 0 1024 1280;" xml:space="preserve">
<style type="text/css">
	.st0{fill:#FFFFFF;}
</style>
<g>
	<path class="st0" d="M422.4,938.9c-5.7-17.8-12.4-39.3-19.9-63.7c-19-61.7-62.1-58.1-107.8-54.2c-14.7,1.2-28.6,2.4-41.6,1.2
		c-23-2.1-39.8-10.1-50-23.7c-12.9-17.3-11.1-38.7-8.9-49.9c1.1-5.6,2.8-10.9,4.2-15.6c3.6-11.7,5.3-18.1,1.6-23.6
		c-7.2-10.5-9.5-20.3-6.6-29.1c3.8-11.7,15-15.9,16.2-16.3l0.3-0.1l4.2-1.3c-3.3-1.3-6-2.5-8.2-3.6c-14.3-7.5-9.6-31.5-5.4-52.8
		c-1-0.4-2-0.7-2.9-0.9l-0.3-0.1l-32-8.5c-4.8-1.2-9.4-3.5-13.6-6.9l-0.3-0.2c-3.9-3.3-7.1-7.5-9.2-12.1
		c-5.7-12.4-3.6-26.9,5.2-37.2l77.4-108.2c0.2-2.3,0.4-6.9,0.4-13c0-9.3-0.4-15.1-0.7-17.2l-0.1-0.2l-0.3-1.4
		c-4.1-17-3.5-29.4-3-39.3c0.1-2.7,0.3-5.3,0.3-7.6c-0.5-94.4,35.9-165.2,108-210.4c54.7-34.3,129-53.4,220.8-56.6
		c48.4-1.7,94.1,5.2,135.8,20.7c39.6,14.7,74.7,36.7,104.5,65.4c30.3,29.2,53.9,64.2,70.2,104.1c16.3,39.8,24.5,82.5,24.5,127.1
		c0,36.5-6.5,72.3-19.3,106.4c-12.4,32.9-30.3,63.5-53.3,91c-54.4,64.9-49.8,111.8-9.6,211.3l-18.5,7.5
		c-19.6-48.5-32.6-88.2-32.3-124.6c0.3-37.3,14.2-70.3,45.1-107c44.5-53,68-116.9,68-184.6c0-84.6-31.5-161.6-88.6-216.8
		c-57.9-55.9-136-83.8-225.7-80.5c-88.3,3.1-159.2,21.2-210.9,53.6c-65.9,41.4-99.1,106.4-98.8,193.5c0,2.8-0.1,5.7-0.3,8.7
		c-0.5,8.9-1,19,2.2,32.7c1,2.6,1.9,8,1.9,24.5c0,18.6-1.2,20.9-3.1,23.2L163.1,553l-0.3,0.4c-3.9,4.5-4.9,10.7-2.4,16
		c0.9,2,2.3,3.8,4,5.3c1.9,1.5,3.9,2.5,5.9,3h0.2l32,8.5c3.9,0.9,7.9,2.5,11.4,4.6c5.5,3.2,8.4,9.6,7.2,15.9
		c-0.2,1.1-0.4,2.2-0.7,3.4c-1.4,7.3-5.2,26.2-3.5,32.3c4.8,2.3,13.8,5.2,25.2,8.3c5.5,1.5,9.2,6.3,9.4,11.9
		c0.1,5.7-3.4,10.6-8.8,12.4l-26.1,8.3c-0.6,0.2-3.2,1.5-3.9,3.7c-0.7,2.4,0.7,6.6,4.1,11.5c9.5,13.7,5,28.1,1.1,40.9
		c-1.4,4.4-2.8,9-3.7,13.6c-1.6,7.9-3,22.9,5.3,34c6.6,8.9,18.7,14.2,35.7,15.7c11.2,1,24.3-0.1,38.1-1.3
		c23.1-1.9,49.2-4.1,72.3,3.7c27.4,9.2,45.8,30.3,56.3,64.6c7.5,24.4,14.2,45.7,19.9,63.5L422.4,938.9z"/>
	<path class="st0" d="M654.8,542.6c-25.9,0-53.2-4.6-68.1-18.3c-8-7.3-11.9-16.7-11.5-27.3c-9.4-5.4-15.1-12.5-16.6-20.4
		c-5.5,0.3-13.1,1.4-22.1,4.5c-26.7,9.3-66.6,9.6-95.4-10.6c-2.7-1.9-5.3-3.7-7.8-5.4c-10.9-7.6-18.8-13-24.1-18.5
		c-2.4-2.5-9-9.4-7.9-19.8c-1.2-1.3-2.2-2.7-3-4.2c-1.6-2.4-5.2-4.9-7-5.3l0,0c-14.3-2.9-33.3-8.6-45.5-19.5
		c-18.9-4.1-34.7-16-42.8-32.4c-7.6-15.6-7.1-32.9,1.4-48.9c0.9-1.7,1.3-3.7,1.1-5.8c-1.4-15.9,3.4-47.2,52-78.9
		c1.2-0.8,2.2-1.8,2.8-2.9l0.1-0.2c5.8-9.3,22.3-31.2,48.4-34.2h0.1c2-0.2,3.8-1,5.4-2.3c12.6-10.7,46.3-35,85.4-27.6
		c1.4,0.3,2.9,0.2,4.3-0.2l0.2-0.1c14.4-4.2,51.9-12.3,88.2,1.3c1.9,0.7,3.7,0.9,5.2,0.6c12.3-2.1,36.6-2.8,61,15
		c1.5,1.1,3.2,1.8,5,1.9c12.4,1,43.8,7.5,66.2,46.5l0.1,0.1c0.7,1.2,1.6,2.2,2.7,3l0.1,0.1c11.9,8.5,32.5,26,37.1,47.8
		c0.2,1.1,0.7,2.2,1.5,3.4c13.2,20.2,42.7,70.9,34.4,106.4v0.1c-0.3,1.2-0.4,2.4-0.2,3.4v0.3c1.8,13.7,3.5,47.6-18.6,68
		c-18.2,16.8-30.8,24.9-43,26.8c-0.3,4.2-1.1,9.1-2.8,14.4c-4.2,12.6-14.8,28.9-41.5,34.7C687.7,540.7,671.5,542.6,654.8,542.6z
		 M595.4,496c-0.7,5.6,0.8,9.8,4.9,13.6c15.6,14.3,61.8,16.2,95.2,9c33-7.2,28.6-36.6,28.4-37.8l-2.2-13.5l13.6,2
		c6.6,1,14.6,0.1,38.1-21.7c15.6-14.4,13.5-42.2,12.4-50.6c-0.6-3.6-0.4-7.4,0.6-11.2c5.4-23-12.9-62.1-31.8-91l-0.1-0.2
		c-2-3.3-3.4-6.6-4.1-9.9c-3.4-16.1-23.1-31.3-29.1-35.6c-3.5-2.5-6.5-5.8-8.6-9.5c-17.7-30.7-41.2-35.7-50.5-36.5
		c-5.5-0.5-10.8-2.4-15.2-5.7c-18.5-13.5-36.6-12.9-45.8-11.4c-4.9,0.8-10.3,0.3-15.5-1.6h-0.1c-30.7-11.6-63-4.5-75.6-0.9
		c-4.5,1.4-9.3,1.6-13.9,0.7c-30.5-5.8-58.2,14.3-68.7,23.2c-4.7,3.9-10.3,6.3-16.2,6.9c-17.5,2-29.3,18-33.7,24.9
		c-2.2,3.6-5.2,6.7-8.9,9.2l-0.1,0.1c-41.4,27-43.9,51.2-43,60.4v0.2c0.5,6-0.7,11.9-3.5,16.9c-6.9,12.9-4.4,23.8-1.1,30.6
		c5.6,11.4,17.5,19.8,31.2,22.1l3.3,0.5l2.3,2.4c6.6,6.8,19.9,12.6,37.5,16.1c8.7,1.7,16.5,8.7,20.1,14.4l0.3,0.5
		c0.3,0.5,0.8,1.1,1.4,1.6c4.1,3.4,5.8,9,4.3,14c-0.2,0.8-0.4,1.7,2.3,4.5c3.9,4,11.5,9.3,21.1,16c2.5,1.7,5.1,3.5,7.8,5.5
		c26.4,18.4,61,13.7,77.4,8c23.5-8.2,40.6-5.1,41.3-5l12.1,2.3l-4.7,11.4c-1.7,4.1,4.6,8,8.5,9.9l0.1,0.1
		C593.1,483.6,596.3,489.7,595.4,496z"/>
	<path class="st0" d="M611.4,623c-1,0-2.1-0.1-3.1-0.3c-6-1.1-11.5-5.3-16.3-12.5c-6.8-10.2-10.9-19.8-14.8-29.2
		c-6.6-15.7-12.3-29.2-30.4-42.2c-34.6-24.6-31.8-64.7-31.7-66.4L535,474l-10-0.8l10,0.8c-0.1,1.2-1.9,30.7,23.3,48.6
		c22.8,16.3,30.1,33.8,37.2,50.7c3.7,8.8,7.2,17.2,13,25.8c0.9,1.3,1.7,2.3,2.3,2.9c0.8-1.4,1.5-3.3,1.4-4.1
		c-1.8-7-2.3-25.7-2.7-49.4c-0.2-8.1-0.3-16.5-0.5-18.7l19.9-2.1c0.3,2.9,0.4,9.3,0.7,20.4c0.3,13.8,0.7,39.5,2.1,44.9
		c2.7,10.5-4.1,22.3-9.8,26.4C618.6,621.8,615,623,611.4,623z"/>
	<path class="st0" d="M596.2,480c-15.8,0-28.3-3-29.1-3.2l4.8-19.4l-2.4,9.7l2.4-9.7c0.3,0.1,26.4,6.3,47.5-0.6
		c65.8-21.7,96.6-10.9,109.1-2.5c9.2,6.2,14.7,14.7,15.3,24.2l-19.9,1.4c-0.2-3.1-2.6-6.4-6.5-9c-7.6-5.1-31.8-14.9-91.8,4.9
		C615.7,479,605.4,480,596.2,480z"/>
	<path class="st0" d="M392.2,413.9c-0.2-1.2-4.7-29,23.8-48c7.4-4.9,13.2-10.4,18.8-15.7c11.2-10.5,22.7-21.4,41.3-19
		c0.4,0,0.8,0.1,1.1,0.2c19.3,2.7,38.7-1.2,54.6-11c1.9-1.2,3.7-2.2,5.5-3.2c0.8-0.5,1.7-0.9,2.5-1.4c34.6-19.7,59.9-15.3,75-8.1
		c16.5,7.7,24.4,20.1,25.3,21.4l-17,10.6c0,0-5.9-9-17.6-14.3c-15.6-7-34.4-4.4-55.7,7.8c-0.8,0.5-1.7,1-2.6,1.5
		c-1.7,1-3.3,1.9-4.9,2.8c-19.9,12.2-43.9,17-67.7,13.7c-0.4,0-0.7-0.1-1-0.2c-8.8-1.1-14.3,3.7-24.9,13.7
		c-5.9,5.6-12.7,11.9-21.5,17.8c-17.4,11.6-15.3,27.4-15.2,28.1v-0.1L392.2,413.9z"/>
	<path class="st0" d="M656.2,872c-1.9-3-4-6-6.2-9.1c-15.8-22.8-35.4-51.2-34.1-117c2.2-105-8.4-129-8.8-129.9
		c0.1,0.2,0.1,0.3,0.1,0.3l17.6-9.5c1.4,2.5,13.4,28.1,11.1,139.6c-1.2,59.4,15.7,83.7,30.6,105.2c2.3,3.3,4.4,6.4,6.5,9.6
		L656.2,872z"/>
</g>
</svg>
