<?xml version="1.0" encoding="utf-8"?>
<!-- Generator: Adobe Illustrator 25.0.1, SVG Export Plug-In . SVG Version: 6.00 Build 0)  -->
<svg version="1.1" xmlns="http://www.w3.org/2000/svg" xmlns:xlink="http://www.w3.org/1999/xlink" x="0px" y="0px"
	 viewBox="0 0 70 112.5" style="enable-background:new 0 0 70 112.5;" xml:space="preserve">
<style type="text/css">
	.st0{fill:#E95420;}
	.st1{fill-rule:evenodd;clip-rule:evenodd;fill:#E95420;}
</style>
<g id="Layer_2">
</g>
<g id="Layer_1">
	<path class="st0" d="M29.5,43c-0.4-0.4-1.8-0.7-2.3-1.4c0-0.4,0-0.8-0.1-1.1c0.1-0.3,0.4-0.5,0.6-0.5c0.5-0.1,0.9,0.8,1.5,0.8
		c0.8,0,0.4-2.2-0.1-2.7c-0.5-0.3-1.9-0.4-2.5-1c-0.1-0.4-0.2-0.8-0.3-1.2c0.1-0.4,0.3-0.6,0.5-0.6c0.5-0.2,1,0.7,1.6,0.6
		c0.8-0.2,0.1-2.3-0.5-2.6c-0.5-0.3-2,0-2.6-0.6c-0.2-0.4-0.3-0.8-0.5-1.2c0.1-0.3,0.3-0.5,0.4-0.6c0.5-0.2,1.1,0.6,1.6,0.3
		c0.8-0.3-0.3-2.2-0.9-2.5c-0.5-0.2-1.9,0.2-2.6-0.2c-0.2-0.4-0.4-0.9-0.7-1.3c0-0.3,0.2-0.5,0.4-0.6c0.5-0.3,1.1,0.4,1.7,0.2
		c0.7-0.4-0.4-2.2-1.1-2.4c-0.6-0.1-1.9,0.3-2.6-0.1c-0.2-0.3-0.4-0.7-0.6-1c0-0.3,0.2-0.5,0.3-0.6c0.4-0.3,1.1,0.4,1.7,0
		c0.7-0.4-0.6-2.1-1.2-2.2c-0.5-0.1-1.7,0.3-2.4,0.1c-0.3-0.6-0.6-1.1-0.9-1.6c0.1-0.2,0.2-0.4,0.3-0.5c0.5-0.3,1.1,0.4,1.7,0.1
		c0.6-0.4-0.4-2-1-2.3c-0.5-0.1-1.6,0.2-2.4-0.1c-0.2-0.5-0.4-1-0.6-1.6c0.1-0.2,0.3-0.3,0.4-0.3c0.5-0.1,1,0.7,1.6,0.5
		c0.7-0.3,0.1-2-0.4-2.4c-0.5-0.3-1.6-0.3-2.8-1h-3.2c-1.1,4.6-0.2,9.4,1.7,13.6c1.7,3.7,3.8,7.1,4.8,11c1.8,6.7,0.1,13.9-3,19.9
		c-3.2,6.1-7.1,12.7-7.6,18.9c-0.5,6.2,2.2,12.1,6.8,16.2c0.3,0.7,1.2,1.2,1.9,1.4c1.6,0.5,3.7,1.4,5.4,2.4c0.6,2.9,0,5.1-0.9,6.2
		c-0.1,0.1,0.2,0.3,0.2,0.3c2.4-1.4,3.3-3.3,3.3-5.5c0-1.5-0.2-2.9-1.4-5.4c-0.2-0.6,0-0.9,0.3-1.1c0.5-0.3,1.1,0.4,1.7,0
		c0.7-0.4-0.5-2-1.1-2.2c-0.6-0.1-2,0.4-2.7-0.2c-0.2-0.3-0.3-0.6-0.5-0.9c-0.1-0.5,0.1-0.7,0.4-0.9c0.5-0.3,1.1,0.4,1.7,0.1
		c0.7-0.4-0.4-2.1-1-2.3c-0.6-0.1-2,0.2-2.7-0.4c-0.1-0.3-0.2-0.6-0.4-0.9c-0.1-0.6,0.2-0.9,0.5-0.9c0.5-0.2,1,0.6,1.6,0.4
		c0.7-0.3,0-2.1-0.6-2.4c-0.6-0.3-2.2-0.2-2.6-1.1c0-0.4-0.1-0.8-0.1-1.1c0.1-0.3,0.4-0.4,0.6-0.4c0.5,0,0.8,0.9,1.5,0.7
		c0.8-0.1,0.5-1.8,0.1-2.3c-0.4-0.4-1.7-0.7-2.1-1.5c0-0.4,0.1-0.8,0.2-1.2c0.2-0.5,0.6-0.5,0.8-0.5c0.5,0.1,0.6,1,1.3,1.1
		c0.7,0.1,1-1.8,0.6-2.4c-0.4-0.5-1.7-1.1-1.8-2c0.1-0.4,0.2-0.7,0.3-1.1c0.3-0.3,0.6-0.3,0.8-0.2c0.5,0.2,0.4,1.1,1,1.3
		c0.7,0.2,1.3-1.7,1.1-2.3c-0.3-0.6-2-1.6-1.5-2.6c0,0,0,0,0,0c0.1-0.2,0.2-0.4,0.2-0.6c0.3-0.4,0.7-0.4,0.9-0.3
		c0.5,0.2,0.3,1.1,0.9,1.4c0.7,0.3,1.4-1.6,1.2-2.2c-0.3-0.6-1.9-1.6-1.4-2.7c0,0,0,0,0,0c0.1-0.2,0.2-0.5,0.3-0.7
		c0.4-0.4,0.7-0.4,1-0.3c0.5,0.2,0.3,1.1,0.9,1.4c0.7,0.3,1.4-1.6,1.2-2.3c-0.3-0.6-1.7-1.5-1.5-2.5c0.1-0.2,0.2-0.4,0.3-0.6
		c0.3-0.4,0.7-0.4,0.9-0.3c0.5,0.2,0.4,1.1,1,1.4c0.7,0.3,1.4-1.7,1.1-2.3c-0.3-0.6-1.7-1.4-1.6-2.3c0.1-0.2,0.2-0.5,0.2-0.7
		c0.3-0.4,0.6-0.4,0.9-0.3c0.5,0.1,0.4,1.1,1.1,1.3c0.8,0.3,1.2-1.9,0.9-2.5c-0.3-0.5-1.7-1.1-1.9-1.9c0.1-0.4,0.1-0.8,0.2-1.2
		c0.2-0.3,0.5-0.4,0.7-0.4c0.5,0,0.7,1,1.3,1.1C30,45.8,30,43.5,29.5,43z M20,47c0.2-0.9,0.3-1.8,0.4-2.8l4.4,0.2
		c-0.1,1.1-0.3,2.1-0.5,3.2L20,47z M24.8,43.3L20.4,43c0-0.9,0-1.8-0.1-2.7l4.5-0.3C24.9,41.1,24.9,42.2,24.8,43.3z M24.7,38.7
		L20.2,39c-0.1-0.9-0.3-1.8-0.5-2.7l4.4-0.9C24.4,36.5,24.6,37.6,24.7,38.7z M14.8,24.4l3.9-1.6c0.5,0.9,1,1.7,1.4,2.5l-4,1.9
		C15.6,26.2,15.2,25.3,14.8,24.4z M18,31.2c0-0.1-0.1-0.1-0.1-0.2c-0.4-0.9-0.8-1.8-1.2-2.6l4.1-1.9c0.6,1.1,1.1,2.2,1.5,3.3
		L18,31.2z M18.5,32.3l4.3-1.4c0.4,1.1,0.8,2.2,1.1,3.3l-4.4,0.9C19.1,34.1,18.8,33.2,18.5,32.3z M19.7,48.3l4.2,0.7
		c-0.3,1-0.6,2.1-1,3.2l-4.1-1.1C19.2,50.2,19.4,49.2,19.7,48.3z M18.4,52.3l4.1,1.1c-0.1,0.3-1,2.4-1.3,3.1l-4.1-1.3
		C17.6,54.2,18,53.2,18.4,52.3z M16.5,56.3l4.1,1.3c-0.5,1-1,2-1.5,3.1l-4.2-1.2C15.5,58.5,16,57.4,16.5,56.3z M11.9,65.3l4.5,1.1
		c-0.4,1.1-0.8,2.2-1.1,3.3l-5.1-0.4C10.7,67.9,11.3,66.6,11.9,65.3z M9.8,70.6L15,71c-0.2,1.1-0.4,2.2-0.4,3.3L9,74.9
		C9.1,73.5,9.8,70.7,9.8,70.6z M9,76.2l5.7-0.6c0,0.5,0.6,2.6,0.8,3.2l-5.9,2C9.1,79.3,9,77.8,9,76.2z M11.2,85.1c-0.5-1-1-2-1.3-3
		l6-2.1c0.4,1.1,1,2.1,1.7,3.1l-4,2.5C12.4,86.4,11.4,85.6,11.2,85.1z M20.6,92.8c-0.7-0.3-2.4-1.1-3.6-1.5c-0.8-0.3-1.5-1-0.7-2.2
		s2.2-0.5,3.1,0.5c0.9,1,1.1,1.3,1.6,2.2C21.6,92.7,21.2,93.1,20.6,92.8z M13.9,87c0.9-0.5,4.4-2.7,4.4-2.7c1,1.4,2,2.9,3,4.4
		c3.1,5.2,2.5,7.7,2,9.2c-0.3,0.5-0.5,0.4-0.5-0.1c0.2-1.2,0.2-2.5-0.1-3.3c0.8-0.9-1.8-4.4-3-5.9c-0.6-0.8-1.2-1.6-2.1-1.6
		c-0.9,0-1.6,0.7-2.2,1.6C14.9,88.9,13.4,88,13.9,87z M17,65.2l-4.5-1.1c0.6-1.1,1.2-2.3,1.8-3.4l4.2,1.2C18,63,17.5,64.1,17,65.2z"
		/>
	<path id="Path_1" class="st1" d="M56.6,98.8l1-2.2l-5.2-2.4l-1.4,3L50.5,97l0.3-0.8l-19.1-8.6l1-2.2L30,84.2l0.6-1.3l-15.1-6.8
		l0.2-0.4l15.1,6.8l0.6-1.3l2.8,1.3l1-2.2l7.1,3.2l-1.9,4.2l0.4,0.2l1.9-4.2l1.4,0.6l-1.9,4.2l0.4,0.2l1.9-4.2L46,85l-1.9,4.2
		l0.4,0.2l1.9-4.2l1.4,0.6L46,90l0.4,0.2l1.9-4.2l1.4,0.6l-1.9,4.2l0.4,0.2l1.9-4.2l1.4,0.6l-1.9,4.2l0.4,0.2l1.9-4.2l2.2,1l0.3-0.8
		l0.4,0.2l-1.4,3l5.2,2.4l1-2.2l0.4,0.2L57,99L56.6,98.8z"/>
</g>
</svg>
