<?xml version="1.0" encoding="utf-8"?>
<!-- Generator: Adobe Illustrator 25.0.1, SVG Export Plug-In . SVG Version: 6.00 Build 0)  -->
<svg version="1.1" id="Layer_1" xmlns="http://www.w3.org/2000/svg" xmlns:xlink="http://www.w3.org/1999/xlink" x="0px" y="0px"
	 viewBox="0 0 48 60" style="enable-background:new 0 0 48 60;" xml:space="preserve">
<style type="text/css">
	.st0{fill:#E95420;}
</style>
<g>
	<path class="st0" d="M41,16h-2V7c0-0.6-0.4-1-1-1H9C8.4,6,8,6.4,8,7v9H7c-0.6,0-1,0.4-1,1v21c0,1.5,0.8,2.9,2.2,3.5l0,0
		C8.3,41.8,8.7,42,9,42h29c2.2,0,4-1.8,4-4V17C42,16.4,41.6,16,41,16z M10,8h27v31.7l-0.2-0.1l-0.1-0.1l-0.1-0.1
		C36.2,39,36,38.5,36,38V20c0-0.6-0.4-1-1-1H19.4l-2.7-2.7C16.5,16.1,16.3,16,16,16h-6V8z M16,32c-0.6,0-1-0.4-1-1v-4
		c0-0.6,0.4-1,1-1h2v-2c0-0.6,0.4-1,1-1h4c0.6,0,1,0.4,1,1v2h2c0.6,0,1,0.4,1,1v4c0,0.6-0.4,1-1,1h-2v2c0,0.6-0.4,1-1,1h-4
		c-0.6,0-1-0.4-1-1v-2H16z M31,36c0.6,0,1,0.4,1,1s-0.4,1-1,1H8v-2H31z"/>
	<path class="st0" d="M20,31v2h2v-2c0-0.6,0.4-1,1-1h2v-2h-2c-0.6,0-1-0.4-1-1v-2h-2v2c0,0.6-0.4,1-1,1h-2v2h2
		C19.6,30,20,30.4,20,31z"/>
	<circle class="st0" cx="31" cy="14" r="4"/>
	<path class="st0" d="M13,12h9c0.6,0,1-0.4,1-1s-0.4-1-1-1h-9c-0.6,0-1,0.4-1,1S12.4,12,13,12z"/>
	<path class="st0" d="M23,14c0-0.6-0.4-1-1-1h-9c-0.6,0-1,0.4-1,1s0.4,1,1,1h9C22.6,15,23,14.6,23,14z"/>
</g>
</svg>
