<?xml version="1.0" encoding="utf-8"?>
<!-- Generator: Adobe Illustrator 25.0.1, SVG Export Plug-In . SVG Version: 6.00 Build 0)  -->
<svg version="1.1" id="Layer_1" xmlns="http://www.w3.org/2000/svg" xmlns:xlink="http://www.w3.org/1999/xlink" x="0px" y="0px"
	 viewBox="0 0 66 82.5" style="enable-background:new 0 0 66 82.5;" xml:space="preserve">
<style type="text/css">
	.st0{fill:#E95420;}
	.st1{fill:#FFFDFD;}
</style>
<g>
	<g>
		<path class="st0" d="M28.9,14.1l-1.3-1.4c-0.4-0.4-1-0.4-1.4,0L25,13.8L14.8,3.5c-0.4-0.4-1-0.4-1.4,0s-0.4,1,0,1.4l10.3,10.3
			l-1.1,1.1c-0.4,0.4-0.4,1,0,1.4l1.3,1.3L28.9,14.1z"/>
		<path class="st0" d="M64.7,43.7c-0.4-0.4-1-0.4-1.4,0l-1.7,1.7l-5.9-5.9l-6.3,6.3l5.9,5.9l-1.7,1.7c-0.4,0.4-0.4,1,0,1.4
			s1,0.4,1.4,0l7.3-7.3l2.4-2.4C65.1,44.7,65.1,44.1,64.7,43.7z"/>
		<path class="st0" d="M33.2,13.9c-0.4-0.4-1-0.4-1.4,0L23.7,22c-0.2,0.2-0.3,0.4-0.3,0.7c0,0.3,0.1,0.5,0.3,0.7l9.6,9.6l9.5-9.5
			L33.2,13.9z"/>
		<path class="st0" d="M57.8,33.2c-0.4-0.4-1-0.4-1.4,0l-1.9,1.9L44.2,24.9l-9.5,9.5L45,44.6l-2,2c-0.4,0.4-0.4,1,0,1.4s1,0.4,1.4,0
			l13.4-13.4C58.2,34.2,58.2,33.6,57.8,33.2z"/>
	</g>
	<path class="st0" d="M19.2,23.2v2.3c0,0.7-0.5,1.2-1.2,1.2H6.3c-0.6,0-1.2-0.5-1.2-1.2v-2.3c0-0.7,0.5-1.2,1.2-1.2H18
		C18.7,22.1,19.2,22.6,19.2,23.2z"/>
	<path class="st0" d="M18.3,40.8h5v3.5h-5c-0.5,0-1,0.5-1,1c0,0.6,0.5,1,1,1h5v3.5h-5c-0.5,0-1,0.5-1,1s0.5,1,1,1h5v3.5h-5
		c-0.5,0-1,0.5-1,1s0.5,1,1,1h5v0.9c0,2.6-2.1,4.7-4.7,4.7h-13c-2.6,0-4.7-2.1-4.7-4.7V38.8c0-1.5,0.7-2.9,1.9-3.8
		c2.1-1.5,3.5-3.8,4-6.3h10.5c0.5,2.5,1.9,4.8,4,6.3c1.2,0.9,1.9,2.3,1.9,3.8h-5c-0.5,0-1,0.4-1,1C17.3,40.3,17.8,40.8,18.3,40.8z"
		/>
</g>
<g>
	<g>
		<path class="st1" d="M5.4,47.9c-0.1,0-0.1,0-0.2-0.1c-0.9-1.1-1.5-2-2-3c-0.6-1.2-0.6-2.6-0.1-3.8l1.7-3.7
			c0.1-0.1,0.2-0.2,0.3-0.1c0.1,0.1,0.2,0.2,0.1,0.3l-1.7,3.7c-0.5,1.1-0.5,2.3,0.1,3.3c0.5,1,1.1,1.9,1.9,2.9
			c0.1,0.1,0.1,0.3,0,0.3C5.5,47.9,5.4,47.9,5.4,47.9z"/>
	</g>
	<g>
		<path class="st1" d="M12.9,57.5l-3.9-4.9c-0.1-0.1-0.1-0.3,0-0.3c0.1-0.1,0.3-0.1,0.3,0l3.6,4.4l2.9-2.4l-4.1-5.1
			c-0.1-0.1-0.1-0.3,0-0.3s0.3-0.1,0.3,0l4.4,5.5L12.9,57.5z"/>
	</g>
	<g>
		<path class="st1" d="M4.5,57.5l-3.7-3.1l7.6-9.6c2.9-3.5,3.6-5.7,3.8-6.8c0-0.2,0-0.4-0.1-0.5v0c0,0,0,0,0,0
			c-0.1-0.3-0.4-0.5-0.7-0.6c-0.5-0.1-1.3-0.3-2.4-0.3H8.4c-1,0-1.9,0.1-2.4,0.3c-0.5,0.1-0.9,0.6-0.8,1.2c0.1,1,0.6,2.7,3.1,6
			c0.1,0.1,0.1,0.3,0,0.3s-0.3,0.1-0.3,0c-2.6-3.3-3-5.2-3.2-6.2c-0.1-0.8,0.4-1.5,1.2-1.7c0.7-0.2,1.6-0.3,2.5-0.3H9
			c0.9,0,1.7,0.1,2.5,0.3c0.5,0.1,0.9,0.5,1.1,0.9l1.7,3.7c0.6,1.2,0.5,2.6-0.1,3.8c-0.6,1-1.3,2.2-2.4,3.5L4.5,57.5z M1.5,54.4
			l2.9,2.4l7.1-8.8c1-1.2,1.8-2.4,2.3-3.4c0.5-1,0.6-2.3,0.1-3.3l-1.3-2.7c-0.3,1.3-1.2,3.4-3.8,6.6L1.5,54.4z"/>
	</g>
	<g>
		<path class="st1" d="M5.8,40.7c-0.1,0-0.2-0.1-0.2-0.2c0-0.1,0.1-0.3,0.2-0.3c0.1,0,1.6-0.3,3-0.3s2.9,0.3,3,0.3
			c0.1,0,0.2,0.1,0.2,0.3c0,0.1-0.1,0.2-0.3,0.2c0,0-1.6-0.3-2.9-0.3C7.4,40.5,5.8,40.7,5.8,40.7C5.8,40.7,5.8,40.7,5.8,40.7z"/>
	</g>
</g>
</svg>
