<?xml version="1.0" encoding="utf-8"?>
<!-- Generator: Adobe Illustrator 25.0.1, SVG Export Plug-In . SVG Version: 6.00 Build 0)  -->
<svg version="1.1" id="Layer_1" xmlns="http://www.w3.org/2000/svg" xmlns:xlink="http://www.w3.org/1999/xlink" x="0px" y="0px"
	 viewBox="0 0 96 120" style="enable-background:new 0 0 96 120;" xml:space="preserve">
<style type="text/css">
	.st0{fill:#FFFFFF;}
</style>
<path class="st0" d="M48,37c-6.9,0-12.5-5.6-12.5-12.5S41.1,12,48,12s12.5,5.6,12.5,12.5S54.9,37,48,37z M48,14
	c-5.8,0-10.5,4.7-10.5,10.5S42.2,35,48,35s10.5-4.7,10.5-10.5S53.8,14,48,14z"/>
<path class="st0" d="M41,84c-1.2,0-2.4-0.5-3.3-1.4l-9.1-9.1c-1.6-1.6-1.7-4-0.2-6.2l6.3-9.7l11.9,8.3l-6.3,5.2
	c0.4,0.5,1,1.2,1.9,2.4c1.1,1.4,2.3,2.9,2.5,3.1l0.1,0.1c1.2,1.8,1,4.3-0.6,5.8C43.4,83.5,42.3,84,41,84L41,84z M35.3,60.4l-5.2,8
	c-0.7,1.1-1.1,2.7,0,3.7l9.1,9.1c0.5,0.5,1.1,0.8,1.8,0.8l0,0c0.7,0,1.3-0.3,1.8-0.8c0.9-0.9,1-2.2,0.3-3.3
	c-0.2-0.2-0.7-0.9-2.5-3.1c-1.1-1.4-2.3-2.9-2.5-3.1L37.4,71l5.8-4.9L35.3,60.4z"/>
<path class="st0" d="M55,84L55,84c-1.2,0-2.4-0.5-3.3-1.4c-1.6-1.5-1.8-4-0.6-5.8l0.1-0.1c0.2-0.3,1.3-1.7,2.5-3.1
	c0.9-1.2,1.5-2,1.9-2.4L49.3,66l11.9-8.3l6.3,9.7c1.4,2.2,1.3,4.7-0.2,6.2l-9.1,9.1C57.4,83.5,56.2,84,55,84z M52.8,78
	c-0.7,1-0.5,2.4,0.3,3.3c0.5,0.5,1.1,0.8,1.8,0.8l0,0c0.7,0,1.3-0.3,1.8-0.8l9.1-9.1c1.1-1.1,0.7-2.6,0-3.7l-5.2-8l-8.1,5.7l5.8,4.9
	l-0.7,0.7c-0.2,0.3-1.3,1.7-2.5,3.1C53.6,77,53,77.7,52.8,78z"/>
<path class="st0" d="M60,57H36v-9c0-0.9-0.6-1.7-1.4-1.9c-3.8-1.1-7.5-2.8-10.9-4.9l0,0L23.4,41c-1.6-1-2.2-2.9-1.5-4.7
	c0.8-1.8,2.7-2.7,4.5-2.1h0.1c0.1,0.1,0.2,0.1,0.3,0.1l0.2,0.1c6.6,2.8,13.7,4.2,21,4.2s14.3-1.4,21-4.2l0.1-0.1
	c0.1,0,0.1-0.1,0.2-0.1l0.2-0.1c1.8-0.5,3.8,0.4,4.5,2.1c0.7,1.7,0.1,3.7-1.5,4.7l-0.3,0.2c-3.4,2.1-7.1,3.8-10.9,4.9
	c-0.8,0.3-1.4,1-1.4,1.9V57H60z M38,55h20v-7c0-1.8,1.2-3.3,2.9-3.8c3.7-1.1,7.3-2.7,10.7-4.8l0.2-0.1c0.6-0.5,0.9-1.3,0.5-2.1
	c-0.3-0.8-1.2-1.2-2.1-1h-0.1l0,0l-0.2,0.1C63,39.2,55.6,40.7,48,40.7s-14.9-1.5-21.9-4.4L26,36.2h-0.1c-0.8-0.2-1.7,0.2-2.1,1
	c-0.3,0.8-0.1,1.6,0.6,2.1l0.1,0.1c3.4,2.1,7,3.7,10.7,4.8c1.7,0.5,2.9,2.1,2.9,3.8v7C38.1,55,38,55,38,55z"/>
</svg>
