<?xml version="1.0" encoding="utf-8"?>
<!-- Generator: Adobe Illustrator 25.0.1, SVG Export Plug-In . SVG Version: 6.00 Build 0)  -->
<svg version="1.1" id="Layer_1" xmlns="http://www.w3.org/2000/svg" xmlns:xlink="http://www.w3.org/1999/xlink" x="0px" y="0px"
	 viewBox="0 0 100 100" style="enable-background:new 0 0 100 100;" xml:space="preserve">
<style type="text/css">
	.st0{fill:#FFFDFD;}
</style>
<g>
	<g>
		<path class="st0" d="M34.4,55c-0.3,0-0.7-0.1-0.9-0.4c-4.1-5.1-7-9.5-9.4-14.1c-2.8-5.4-2.9-12-0.3-17.7l8.1-17.3
			c0.3-0.5,1-0.8,1.6-0.5C34,5.3,34.3,5.9,34,6.5l-8.1,17.3c-2.3,5-2.3,10.8,0.3,15.6c2.3,4.5,5.1,8.7,9.1,13.7
			c0.4,0.5,0.3,1.2-0.2,1.6C34.9,55,34.6,55,34.4,55z"/>
	</g>
	<g>
		<path class="st0" d="M69.8,100L51.7,77.3c-0.4-0.5-0.3-1.2,0.2-1.6s1.2-0.3,1.6,0.2l16.7,20.8l13.6-11.4l-19-23.8
			c-0.4-0.5-0.3-1.2,0.2-1.6c0.5-0.4,1.2-0.3,1.6,0.2L87,85.7L69.8,100z"/>
	</g>
	<g>
		<path class="st0" d="M30.2,100L13,85.7L48.7,41c13.4-16.4,17-26.5,17.6-32c0.1-0.9,0-1.7-0.3-2.4V6.5c0,0,0-0.1-0.1-0.1
			C65.3,5,64,3.9,62.4,3.5c-2.3-0.6-6.1-1.2-11-1.2h-2.9c-4.9,0-8.7,0.7-11,1.2c-2.5,0.6-4.1,3-3.9,5.5c0.6,4.7,2.6,12.8,14.4,28
			c0.4,0.5,0.3,1.2-0.2,1.6c-0.5,0.4-1.2,0.3-1.6-0.2C34.2,22.8,32,14.3,31.4,9.3c-0.4-3.7,2-7.1,5.6-8C40.5,0.4,44.4,0,48.5,0h2.9
			c4.1,0,8,0.4,11.6,1.3c2.4,0.6,4.2,2.2,5.1,4.4l8.1,17.2c2.6,5.6,2.5,12.2-0.3,17.7C73.3,45.5,69.6,51,64.7,57L30.2,100z
			 M16.2,85.4l13.6,11.4l33.1-41.3c4.8-5.8,8.4-11.2,10.9-16s2.6-10.7,0.3-15.6l-5.9-12.5c-1.3,6.1-5.5,16.1-17.8,31.1L16.2,85.4z"
			/>
	</g>
	<g>
		<path class="st0" d="M36.2,21.5c-0.5,0-1-0.4-1.1-1s0.3-1.2,0.9-1.3c0.3,0,7.5-1.2,14-1.2s13.7,1.2,14,1.2c0.6,0.1,1,0.7,0.9,1.3
			c-0.1,0.6-0.7,1-1.3,0.9c-0.1,0-7.4-1.2-13.6-1.2c-6.3,0-13.6,1.2-13.6,1.2C36.3,21.5,36.2,21.5,36.2,21.5z"/>
	</g>
</g>
</svg>
