<?xml version="1.0" encoding="utf-8"?>
<!-- Generator: Adobe Illustrator 25.0.1, SVG Export Plug-In . SVG Version: 6.00 Build 0)  -->
<svg version="1.1" id="Layer_1" xmlns="http://www.w3.org/2000/svg" xmlns:xlink="http://www.w3.org/1999/xlink" x="0px" y="0px"
	 viewBox="0 0 100 100" style="enable-background:new 0 0 100 100;" xml:space="preserve">
<style type="text/css">
	.st0{fill:#E95420;}
</style>
<g>
	<circle class="st0" cx="14.2" cy="73.3" r="7.8"/>
	<path class="st0" d="M93.8,82.8H7.8c-0.4,0-0.8,0.3-0.8,0.8s0.3,0.8,0.8,0.8h85.9c0.4,0,0.8-0.3,0.8-0.8S94.2,82.8,93.8,82.8z"/>
	<path class="st0" d="M21.3,54.3l4.1,1.7l4.7,1.9c0.7,0.3,1.4,0.3,2.1,0c0.7-0.3,1.2-0.8,1.4-1.5c0.4-1.2,0-2.6-1.2-3.2l-6-3.5
		c-1.1-0.6-1.5-2-0.9-3.1l0.5-1c0.2-0.3,0.6-0.5,0.9-0.4c0,0,0.1,0,0.1,0c0.4,0.2,0.5,0.7,0.3,1.1l-0.5,1c-0.2,0.4-0.1,0.8,0.3,1
		l6,3.5c1.8,1,2.5,3.2,1.8,5.1c-0.4,1.1-1.2,2-2.3,2.4c-0.5,0.2-1.1,0.4-1.7,0.4c-0.5,0-1.1-0.1-1.6-0.3l-4-1.7c0,2.7-0.2,5.3-0.6,8
		l0,0.2c1.4-1.5,3.3-2.6,5.4-3c0.9-0.2,1.7-0.2,2.7-0.2c0.8,0,1.6,0,2.7,0.1l0,0l0,0l12.5,1.9c-0.3-2.3-0.5-4.7-0.5-7l-4.1,1.7
		c-0.5,0.2-1.1,0.3-1.6,0.3c-0.6,0-1.2-0.1-1.7-0.4c-1.1-0.5-1.9-1.3-2.3-2.4c-0.7-1.9,0-3.9,1.7-5l-0.9-1.5l0,0
		c-0.7,0.4-1.7,0.2-2.1-0.6l-0.9-1.6c-0.8-1.4-0.3-3.2,1.1-4.1l1.5,2.7l1.6,2.8h0l0.9,1.5l5-2.9c0.4-0.2,0.5-0.6,0.3-1l-0.5-1
		c-0.2-0.4-0.1-0.9,0.3-1.1c0,0,0.1,0,0.1,0c0.4-0.1,0.7,0,0.9,0.4l0.5,1c0.6,1.1,0.2,2.5-0.9,3.1l-6,3.5c-1.1,0.7-1.6,2-1.2,3.2
		c0.3,0.7,0.8,1.2,1.4,1.5c0.7,0.3,1.4,0.3,2.1,0l4.8-2l4-1.7c2.2-0.9,3.6-3,3.6-5.4c0-0.7-0.1-1.3-0.4-1.9l-3.2-8.8
		c-0.7-2-2.1-3.7-3.8-4.8c-1.6-1.1-3.5-1.7-5.6-1.7h-0.6h-0.2c-0.5,0-0.9,0.2-1.3,0.5l-2.8,1.9c-0.5,0.4-1.2,0.4-1.8,0L33,32.1
		c-0.4-0.3-0.9-0.4-1.4-0.5c0,0,0,0,0,0h-0.2h-0.6c-1.9,0-3.8,0.6-5.3,1.6c-1.8,1.1-3.2,2.9-4,4.9L18.1,47c-0.2,0.6-0.3,1.2-0.4,1.9
		C17.7,51.3,19.1,53.4,21.3,54.3z"/>
	<path class="st0" d="M80.1,49.6c0.4,0,0.7-0.2,0.8-0.6l1-3.9c0.1-0.4-0.2-0.8-0.6-0.9c-0.4-0.1-0.8,0.2-0.9,0.6l-1,3.9
		c-0.1,0.4,0.2,0.8,0.6,0.9C80,49.6,80.1,49.6,80.1,49.6z"/>
	<path class="st0" d="M70.3,45.1c0.3,0,0.5-0.1,0.7-0.4l2.6-4.1c0.2-0.4,0.1-0.8-0.2-1.1c-0.4-0.2-0.8-0.1-1.1,0.2l-2.6,4.1
		c-0.2,0.4-0.1,0.8,0.2,1.1C70,45,70.1,45.1,70.3,45.1z"/>
	<path class="st0" d="M62.5,37.4l4.1-3.4c0.3-0.3,0.4-0.8,0.1-1.1c-0.3-0.3-0.8-0.4-1.1-0.1l-4.1,3.4c-0.3,0.3-0.4,0.8-0.1,1.1
		c0.2,0.2,0.4,0.3,0.6,0.3C62.2,37.6,62.4,37.6,62.5,37.4z"/>
	<path class="st0" d="M86.5,44c0.8,0,1.5-0.2,1.9-0.7c0.3-0.3,0.5-0.7,0.6-1.2c5-10.1,2.3-22.5,1.4-25.9c-0.1-0.6-0.6-1-1.2-1.1
		c-16.9-3.9-24.5-1-26.8,0.2c-0.3,0.1-0.5,0.2-0.7,0.4c0,0,0,0,0,0c-2.5,2.4,1.5,10.5,8.8,18.1C76.6,40,83,44,86.5,44z M87.3,42.2
		c-0.2,0.2-0.6,0.2-0.9,0.2c-2.7,0-8.6-3.3-14.7-9.7c-6.1-6.3-9.2-12.3-9.1-15c0-0.3,0-0.7,0.3-0.9c0.2-0.2,0.6-0.2,0.9-0.2
		c2.7,0,8.6,3.3,14.7,9.7c6.1,6.3,9.2,12.3,9.1,15C87.6,41.5,87.5,42,87.3,42.2z"/>
	<path class="st0" d="M83.5,39.3c0.2,0.2,0.4,0.2,0.6,0.2c0.2,0,0.4-0.1,0.5-0.2c0.3-0.3,0.3-0.8,0-1.1l-1.5-1.6
		c-0.3-0.3-0.8-0.3-1.1,0c-0.3,0.3-0.3,0.8,0,1.1L83.5,39.3z"/>
	<path class="st0" d="M78,33.6l1.5,1.6c0.2,0.2,0.4,0.2,0.6,0.2c0.2,0,0.4-0.1,0.5-0.2c0.3-0.3,0.3-0.8,0-1.1l-1.5-1.6
		c-0.3-0.3-0.8-0.3-1.1,0C77.7,32.8,77.7,33.3,78,33.6z"/>
	<path class="st0" d="M75.1,28.4c-0.3-0.3-0.8-0.3-1.1,0c-0.3,0.3-0.3,0.8,0,1.1l1.5,1.6c0.2,0.2,0.4,0.2,0.6,0.2
		c0.2,0,0.4-0.1,0.5-0.2c0.3-0.3,0.3-0.8,0-1.1L75.1,28.4z"/>
	<path class="st0" d="M71.1,24.3c-0.3-0.3-0.8-0.3-1.1,0c-0.3,0.3-0.3,0.8,0,1.1l1.5,1.6c0.2,0.2,0.4,0.2,0.6,0.2
		c0.2,0,0.4-0.1,0.5-0.2c0.3-0.3,0.3-0.8,0-1.1L71.1,24.3z"/>
	<path class="st0" d="M67.1,20.1c-0.3-0.3-0.8-0.3-1.1,0c-0.3,0.3-0.3,0.8,0,1.1l1.5,1.6c0.2,0.2,0.4,0.2,0.6,0.2
		c0.2,0,0.4-0.1,0.5-0.2c0.3-0.3,0.3-0.8,0-1.1L67.1,20.1z"/>
	<path class="st0" d="M56.2,28.6c0.1,0,0.2,0,0.3-0.1l4.8-1.9c0.4-0.2,0.6-0.6,0.4-1c-0.2-0.4-0.6-0.6-1-0.4l-4.8,1.9
		c-0.4,0.2-0.6,0.6-0.4,1C55.5,28.5,55.8,28.6,56.2,28.6z"/>
	<path class="st0" d="M88.6,81.1c2.3,0,4.2-1.9,4.2-4.2c0-2.1-1.5-3.9-2.7-4.2l-41.6-6.3l-12.9-2c-1-0.1-1.8-0.1-2.6-0.1
		c-0.9,0-1.7,0.1-2.4,0.2c-2.9,0.5-5.2,2.6-6.3,5.2c-0.4,0.9-0.6,1.9-0.6,3v0c0,4.7,3.7,8.4,8.4,8.4h23.1c1.3-0.3,2.3-1.5,2.3-2.9
		c0-1.5-1.1-2.7-2.6-2.9l-19.7-2.8c-0.4-0.1-0.7-0.5-0.7-0.9c0.1-0.4,0.5-0.7,0.9-0.7l19.7,2.8c2.2,0.3,3.9,2.2,3.9,4.5
		c0,1.1-0.4,2.1-1,2.9H88.6z"/>
	<path class="st0" d="M27.3,30.3c0.9,0,2.3-0.3,4-1.5c1.4,1.3,3.2,2.1,5.3,2.1c2,0,3.9-0.8,5.3-2.1c1.7,1.2,3.1,1.5,4,1.5
		c0.6,0,1.1-0.5,1.1-1.1c0-0.3-0.1-0.6-0.4-0.8c-1-0.9-2.1-5.4-2.4-6.8c0-0.1,0-0.2-0.1-0.3c0-0.1,0-0.2,0-0.2c0,0,0,0,0,0
		c-0.9-3.4-3.9-5.9-7.6-5.9c-3.7,0-6.7,2.5-7.6,5.9c0,0,0,0,0,0c0,0,0,0.1-0.1,0.3c0,0,0,0.1,0,0.1c-0.3,1.4-1.4,5.9-2.4,6.9
		c-0.2,0.2-0.4,0.5-0.4,0.8C26.1,29.8,26.6,30.3,27.3,30.3z M36.4,19.2c0.9,1,2.7,2.3,6.3,2.4c0.1,0.3,0.1,0.5,0.2,0.8l-3.4,1.8
		c0,0-0.1,0.1-0.1,0.1l-1.7-0.7c-0.6-0.2-1.2-0.2-1.8,0l-1.9,0.8c0,0-0.1-0.1-0.1-0.1l-3.4-1.8c0-0.3,0.1-0.6,0.2-0.9
		C33.4,21.5,35.2,20.4,36.4,19.2z M36.6,29.3c-1.1,0-2.2-0.3-3.1-0.8v-1.6c0-0.5,0.3-0.9,0.7-1.1l2.2-0.9c0.2-0.1,0.4-0.1,0.6,0
		l2,0.8c0.4,0.2,0.7,0.6,0.7,1v1.6C38.8,29,37.7,29.3,36.6,29.3z M41.2,27.2v-0.3c0-0.6-0.2-1.2-0.5-1.6l2-1.1
		C42.5,25.4,42,26.4,41.2,27.2z M32.5,25.3c-0.3,0.5-0.5,1-0.5,1.6v0.3c-0.7-0.8-1.3-1.9-1.5-3L32.5,25.3z"/>
</g>
</svg>
