<?xml version="1.0" encoding="utf-8"?>
<!-- Generator: Adobe Illustrator 25.0.1, SVG Export Plug-In . SVG Version: 6.00 Build 0)  -->
<svg version="1.1" id="Layer_1" xmlns="http://www.w3.org/2000/svg" xmlns:xlink="http://www.w3.org/1999/xlink" x="0px" y="0px"
	 viewBox="0 0 64 80" style="enable-background:new 0 0 64 80;" xml:space="preserve">
<style type="text/css">
	.st0{fill:#E95420;}
	.st1{fill:#FFFFFF;}
</style>
<g>
	<g id="XMLID_1_">
		<g>
			<path class="st0" d="M60,7c1.7,0,3,1.4,3,3s-1.3,3-3,3h-1v2c0,2.2-1.8,4-4,4s-4-1.8-4-4v-2h-2.1c-0.4,1.4-1.5,2.5-2.9,2.9V18
				c0,2.1-0.5,4-1.3,5.9c0.1,0.4,0.2,0.8,0.2,1.2c3.4,0.5,6.1,3.4,6.1,6.9c0,1.8-0.7,3.5-1.8,4.7c0.5,1,0.8,2.1,0.8,3.3
				c0,3.2-2.1,5.9-5,6.7c-0.3,3.2-2.8,5.8-6,6.2v4.2c1.7,0.5,3,2,3,3.9v2h-8v-2c0-1.9,1.3-3.4,3-3.9v-4.2c-2.1-0.3-3.9-1.5-5-3.3
				c-1.1,1.8-2.9,3-5,3.3v4.2c1.7,0.5,3,2,3,3.9v2h-8v-2c0-1.9,1.3-3.4,3-3.9v-4.2c-3.1-0.4-5.5-2.9-5.9-6C15.6,46.5,13,43.5,13,40
				c0-1.8,0.7-3.5,1.8-4.7c-0.5-1-0.8-2.1-0.8-3.3c0-3.1,2.1-5.9,5-6.7c0-0.5,0.1-0.9,0.3-1.4C18.5,22,18,20.1,18,18v-2.1
				c-1.4-0.4-2.5-1.5-2.9-2.9H13v2c0,2.2-1.8,4-4,4s-4-1.8-4-4v-2H4c-1.7,0-3-1.4-3-3s1.3-3,3-3h1V5c0-2.2,1.8-4,4-4s4,1.8,4,4v2
				h2.1c0.4-1.7,2-3,3.9-3s3.4,1.3,3.9,3h18.3c0.5-1.7,2-3,3.9-3s3.4,1.3,3.9,3H51V5c0-2.2,1.8-4,4-4s4,1.8,4,4v2H60z M61,10
				c0-0.6-0.5-1-1-1h-1v2h1C60.5,11,61,10.6,61,10z M57,15V5c0-1.1-0.9-2-2-2s-2,0.9-2,2v10c0,1.1,0.9,2,2,2S57,16.1,57,15z M51,11
				V9h-2v2H51z M49,32c0-2.5-1.8-4.5-4.1-4.9C44.4,30.4,41.5,33,38,33v-2c2.8,0,5-2.2,5-5s-2.2-5-5-5s-5,2.2-5,5h-2c0-2.8-2.2-5-5-5
				s-5,2.2-5,5v0.9l-0.8,0.2C17.8,27.5,16,29.5,16,32c0,0.7,0.1,1.4,0.4,2c1-0.6,2.3-1,3.6-1v2c-2.8,0-5,2.2-5,5
				c0,2.5,1.8,4.5,4.1,4.9c0.5-3.3,3.4-5.9,6.9-5.9v2c-2.8,0-5,2.2-5,5s2.2,5,5,5s5-2.2,5-5h2c0,2.8,2.2,5,5,5s5-2.2,5-5v-0.8
				l0.8-0.2c2.4-0.4,4.2-2.5,4.2-4.9c0-0.7-0.2-1.4-0.4-2c-1,0.6-2.3,1-3.6,1v-2C46.8,37,49,34.8,49,32z M47,12V8c0-1.1-0.9-2-2-2
				s-2,0.9-2,2v4c0,1.1,0.9,2,2,2S47,13.1,47,12z M44,18v-2.1c-1.4-0.4-2.5-1.5-2.9-2.9H22.9c-0.4,1.4-1.5,2.5-2.9,2.9V18
				c0,1.2,0.2,2.4,0.6,3.6C21.9,20,23.8,19,26,19c2.5,0,4.8,1.4,6,3.4c1.2-2,3.5-3.4,6-3.4c2.2,0,4.2,1,5.4,2.6
				C43.8,20.4,44,19.2,44,18z M41,11V9H23v2H41z M36,61h4c0-1.1-0.9-2-2-2S36,59.9,36,61z M24,61h4c0-1.1-0.9-2-2-2S24,59.9,24,61z
				 M21,12V8c0-1.1-0.9-2-2-2s-2,0.9-2,2v4c0,1.1,0.9,2,2,2S21,13.1,21,12z M15,11V9h-2v2H15z M11,15V5c0-1.1-0.9-2-2-2S7,3.9,7,5
				v10c0,1.1,0.9,2,2,2S11,16.1,11,15z M5,11V9H4c-0.5,0-1,0.4-1,1s0.5,1,1,1H5z"/>
			<path class="st0" d="M60,9c0.5,0,1,0.4,1,1s-0.5,1-1,1h-1V9H60z"/>
			<path class="st0" d="M57,5v10c0,1.1-0.9,2-2,2s-2-0.9-2-2V5c0-1.1,0.9-2,2-2S57,3.9,57,5z"/>
			<rect x="49" y="9" class="st0" width="2" height="2"/>
			<path class="st1" d="M44.9,27.1c2.3,0.4,4.1,2.5,4.1,4.9c0,2.8-2.2,5-5,5v2c1.3,0,2.5-0.4,3.6-1c0.3,0.6,0.4,1.3,0.4,2
				c0,2.5-1.8,4.5-4.2,4.9L43,45.2V46c0,2.8-2.2,5-5,5s-5-2.2-5-5h-2c0,2.8-2.2,5-5,5s-5-2.2-5-5s2.2-5,5-5v-2
				c-3.5,0-6.4,2.6-6.9,5.9C16.8,44.5,15,42.5,15,40c0-2.8,2.2-5,5-5v-2c-1.3,0-2.5,0.4-3.6,1c-0.3-0.6-0.4-1.3-0.4-2
				c0-2.5,1.8-4.5,4.2-4.9l0.8-0.2V26c0-2.8,2.2-5,5-5s5,2.2,5,5h2c0-2.8,2.2-5,5-5s5,2.2,5,5s-2.2,5-5,5v2
				C41.5,33,44.4,30.4,44.9,27.1z M42,40h-2c0,1.1-0.9,2-2,2v2C40.2,44,42,42.2,42,40z M41,26c0-1.6-1.3-3-3-3v2c0.5,0,1,0.5,1,1
				s-0.5,1-1,1v2C39.7,29,41,27.6,41,26z M39,35h-2c0,1.1-0.9,2-2,2v2C37.2,39,39,37.2,39,35z M34,40h-2c0,1.1-0.9,2-2,2v2
				C32.2,44,34,42.2,34,40z M30,32h2c0-2.2-1.8-4-4-4v2C29.1,30,30,30.9,30,32z M26,49v-2c-0.5,0-1-0.5-1-1s0.5-1,1-1v-2
				c-1.6,0-3,1.3-3,3S24.4,49,26,49z M23,33h2c0-2.2-1.8-4-4-4v2C22.1,31,23,31.9,23,33z"/>
			<path class="st0" d="M47,8v4c0,1.1-0.9,2-2,2s-2-0.9-2-2V8c0-1.1,0.9-2,2-2S47,6.9,47,8z"/>
			<path class="st0" d="M40,40h2c0,2.2-1.8,4-4,4v-2C39.1,42,40,41.1,40,40z"/>
			<rect x="23" y="9" class="st0" width="18" height="2"/>
			<path class="st0" d="M38,23c1.7,0,3,1.4,3,3s-1.3,3-3,3v-2c0.5,0,1-0.5,1-1s-0.5-1-1-1V23z"/>
			<path class="st0" d="M40,61h-4c0-1.1,0.9-2,2-2S40,59.9,40,61z"/>
			<path class="st0" d="M37,35h2c0,2.2-1.8,4-4,4v-2C36.1,37,37,36.1,37,35z"/>
			<path class="st0" d="M32,40h2c0,2.2-1.8,4-4,4v-2C31.1,42,32,41.1,32,40z"/>
			<path class="st0" d="M32,32h-2c0-1.1-0.9-2-2-2v-2C30.2,28,32,29.8,32,32z"/>
			<path class="st0" d="M28,61h-4c0-1.1,0.9-2,2-2S28,59.9,28,61z"/>
			<path class="st0" d="M26,47v2c-1.6,0-3-1.3-3-3s1.4-3,3-3v2c-0.5,0-1,0.5-1,1S25.5,47,26,47z"/>
			<path class="st0" d="M25,33h-2c0-1.1-0.9-2-2-2v-2C23.2,29,25,30.8,25,33z"/>
			<path class="st0" d="M21,8v4c0,1.1-0.9,2-2,2s-2-0.9-2-2V8c0-1.1,0.9-2,2-2S21,6.9,21,8z"/>
			<rect x="13" y="9" class="st0" width="2" height="2"/>
			<path class="st0" d="M11,5v10c0,1.1-0.9,2-2,2s-2-0.9-2-2V5c0-1.1,0.9-2,2-2S11,3.9,11,5z"/>
			<path class="st0" d="M5,9v2H4c-0.5,0-1-0.4-1-1s0.5-1,1-1H5z"/>
		</g>
		<g>
		</g>
	</g>
</g>
</svg>
