<?xml version="1.0" encoding="utf-8"?>
<!-- Generator: Adobe Illustrator 25.0.1, SVG Export Plug-In . SVG Version: 6.00 Build 0)  -->
<svg version="1.1" id="Layer_1" xmlns="http://www.w3.org/2000/svg" xmlns:xlink="http://www.w3.org/1999/xlink" x="0px" y="0px"
	 viewBox="0 0 64 80" style="enable-background:new 0 0 64 80;" xml:space="preserve">
<style type="text/css">
	.st0{fill:#E95420;}
</style>
<g>
	<circle class="st0" cx="37" cy="39" r="1"/>
	<path class="st0" d="M19,49h-1V34.7l-0.6-0.3C16.5,33.9,16,33,16,32s0.5-1.9,1.4-2.4l0.6-0.3V15h1c3.3,0,6-2.7,6-6s-2.7-6-6-6
		c-1.6,0-3.1,0.6-4.3,1.8L14,5.5l-0.7-0.7C12.1,3.6,10.6,3,9,3C5.7,3,3,5.7,3,9s2.7,6,6,6h1v34H9c-3.3,0-6,2.7-6,6s2.7,6,6,6
		c1.6,0,3.1-0.6,4.3-1.8l0.7-0.7l0.7,0.7c1.1,1.2,2.7,1.8,4.3,1.8c3.3,0,6-2.7,6-6S22.3,49,19,49z"/>
	<path class="st0" d="M46.1,32c0.2-0.6,0.5-1.2,0.9-1.8c-0.3-0.1-0.7-0.2-1-0.2c-0.6,0-1,0.4-1,1c0,0.5,0.4,1,0.9,1L46.1,32z"/>
	<path class="st0" d="M39,31c0.6,0,1-0.4,1-1s-0.4-1-1-1c-1.1,0-2-0.9-2-2s0.9-2,2-2c0.6,0,1-0.4,1-1s-0.4-1-1-1c-2.2,0-4,1.8-4,4
		S36.8,31,39,31z"/>
	<path class="st0" d="M50.9,37c-0.2,0.6-0.5,1.2-0.9,1.8c0.3,0.1,0.7,0.2,1,0.2c0.6,0,1-0.4,1-1c0-0.5-0.4-1-0.9-1L50.9,37z"/>
	<path class="st0" d="M60.9,29.9c-0.9-8.1-7.5-14.8-15.6-15.8C44.5,14,43.8,14,43,14c-8,0-15.1,5.2-17.3,13l-0.1,0.4l-7.2,3.9
		C18.1,31.5,18,31.7,18,32s0.1,0.5,0.4,0.6l7.2,3.9l0.1,0.4C27.9,44.6,35,50,43,50c5.1,0,10-2.2,13.4-6
		C59.9,40.1,61.5,35.1,60.9,29.9z M43,48c-8.8,0-16-7.2-16-16s7.2-16,16-16s16,7.2,16,16S51.8,48,43,48z"/>
	<path class="st0" d="M43,18c-7.7,0-14,6.3-14,14s6.3,14,14,14s14-6.3,14-14S50.7,18,43,18z M48,23h2v2h-2V23z M44,20h2v2h-2V20z
		 M39,21c1.7,0,3,1.3,3,3s-1.3,3-3,3c1.7,0,3,1.3,3,3s-1.3,3-3,3c-3.3,0-6-2.7-6-6S35.7,21,39,21z M32,35v-2h2v2H32z M37,42
		c-1.7,0-3-1.3-3-3s1.3-3,3-3s3,1.3,3,3S38.7,42,37,42z M43,44h-2v-2h2V44z M54,31c0,1.3-0.9,2.5-2.2,2.9c-0.1,0.1-0.1,0.3-0.2,0.6
		c0.1,0.3,0.2,0.5,0.2,0.6c1.2,0.4,2.2,1.5,2.2,2.9c0,1.7-1.3,3-3,3c-0.9,0-1.8-0.2-2.5-0.7C47.8,40.7,47,41,46,41c-1.7,0-3-1.3-3-3
		c0-1.3,0.9-2.5,2.2-2.9c0.1-0.1,0.1-0.3,0.2-0.6c-0.1-0.3-0.2-0.5-0.2-0.6C43.9,33.5,43,32.3,43,31c0-1.7,1.3-3,3-3
		c0.9,0,1.8,0.2,2.5,0.7C49.2,28.3,50,28,51,28C52.7,28,54,29.3,54,31z"/>
	<path class="st0" d="M47.5,34.2c-0.3,1.2-0.6,2-0.9,2.4L46.4,37l-0.5,0c-0.5,0-0.9,0.5-0.9,1c0,0.6,0.4,1,1,1
		c2.1,0,2.8-1.9,3.5-4.2c0.3-1.2,0.6-2,0.9-2.4l0.3-0.4l0.5,0c0.5,0,0.9-0.5,0.9-1c0-0.6-0.4-1-1-1C48.9,30,48.2,31.9,47.5,34.2z"/>
</g>
</svg>
