<?xml version="1.0" encoding="utf-8"?>
<!-- Generator: Adobe Illustrator 25.0.1, SVG Export Plug-In . SVG Version: 6.00 Build 0)  -->
<svg version="1.1"
	 id="Layer_1" xmlns:cc="http://creativecommons.org/ns#" xmlns:dc="http://purl.org/dc/elements/1.1/" xmlns:inkscape="http://www.inkscape.org/namespaces/inkscape" xmlns:rdf="http://www.w3.org/1999/02/22-rdf-syntax-ns#" xmlns:sodipodi="http://sodipodi.sourceforge.net/DTD/sodipodi-0.dtd" xmlns:svg="http://www.w3.org/2000/svg"
	 xmlns="http://www.w3.org/2000/svg" xmlns:xlink="http://www.w3.org/1999/xlink" x="0px" y="0px" viewBox="0 0 717.4 822.7"
	 style="enable-background:new 0 0 717.4 822.7;" xml:space="preserve">
<style type="text/css">
	.st0{fill:#E95420;}
</style>
<g transform="translate(18.086628,-167.77292)">
	<path class="st0" d="M434,171.8c-33.2,0-60.1,27-60.1,60.2c0,33.2,26.9,60.2,60.1,60.2c33.2,0,60.2-26.9,60.2-60.2c0,0,0-0.1,0-0.1
		C494.2,198.8,467.3,171.8,434,171.8C434,171.8,434,171.8,434,171.8L434,171.8z M585.6,237c-33.2,0-60.2,26.9-60.2,60.2
		c0,0,0,0.1,0,0.1c0,33.2,27,60.1,60.2,60.1c33.2,0,60.1-26.9,60.1-60.1C645.7,264,618.8,237,585.6,237L585.6,237z M357.1,272
		c-10.4,1.5-20.2,7-27,16.1l-22.5,30.2c-30.3,40.8-47.2,91.2-47.2,142.1v13.3h81.9v-13.3c0-33.2,11-66.2,30.9-92.9l37.2,18.7
		c3.5,1.7,7.3,2.7,11.4,2.7c3.3,0,6.8-0.6,9.9-1.9l62.1-26.2c0.4-0.2,0.8-0.4,1.1-0.6c5.1-2.2,9-5.9,11.3-10.4
		c3.9-6.7,4.8-15,1.5-22.5c-5.5-13.1-20.5-19.3-33.6-13.8l-51.3,21.6l-20.7-10.3c4.9-16.2-0.2-34.2-14.5-44.9
		C378.5,273,367.5,270.5,357.1,272L357.1,272z M529,352.6c-9.2,0.6-18,4.8-24.5,12.2L400.4,484H123c-19.8,0-35.9,16.1-35.9,35.9
		c0,19.8,16.1,35.8,35.9,35.8h293.6c10.4,0,20.2-4.5,27-12.2L558.4,412c13-14.9,11.6-37.5-3.4-50.5C547.6,354.9,538.1,352,529,352.6
		L529,352.6z M645.8,353.6c-13.1,0.9-25.9,6.8-35.3,17.5L438,567.8H155.5c-28.3,0-51.3,23-51.3,51.3c0,17,8.4,32,21.2,41.3
		l-45.1,69.7H3.5c-11.4,0-20.6,9.1-20.6,20.5c0,11.4,9.2,20.5,20.6,20.5h88c7,0,13.5-3.6,17.2-9.3l59-91.4h293.5
		c14.7,0,28.9-6.4,38.5-17.5l187.9-214.2c18.6-21.2,16.5-53.7-4.7-72.4C672.3,357,658.9,352.7,645.8,353.6L645.8,353.6z
		 M328.7,680.6l-36.6,98.8c-47.7,4.7-79.8,13.5-79.8,23.4c0,15,72.2,27.2,161.3,27.2c89.1,0,161.3-12.1,161.3-27.2
		c-0.1-9.9-32.1-18.6-79.6-23.4l-36.6-98.8H328.7z"/>
</g>
</svg>
