<?xml version="1.0" encoding="utf-8"?>
<!-- Generator: Adobe Illustrator 25.0.1, SVG Export Plug-In . SVG Version: 6.00 Build 0)  -->
<svg version="1.1" id="Layer_1" xmlns="http://www.w3.org/2000/svg" xmlns:xlink="http://www.w3.org/1999/xlink" x="0px" y="0px"
	 viewBox="0 0 100 125" style="enable-background:new 0 0 100 125;" xml:space="preserve">
<style type="text/css">
	.st0{fill:#E95420;}
</style>
<path class="st0" d="M56.3,40c-0.3-2.9-1.9-5.5-4.4-7.1l-5.2-3.5c-2.5-1.6-4.1-4.2-4.4-7.1c0-0.3,0-0.6,0-0.9v-1.2h1.1
	c0.8,0,1.4-0.6,1.4-1.4V9.1c0-0.8-0.6-1.4-1.4-1.4H20.7c-0.8,0-1.4,0.6-1.4,1.4v9.7c0,0.8,0.6,1.4,1.4,1.4h1v1.1c0,0.3,0,0.6,0,0.9
	c-0.3,2.9-2,5.5-4.4,7.1l-5.2,3.5C9.6,34.5,8,37.1,7.7,40c0,0.3,0,0.6,0,0.9v44.4c0,3.9,3.1,7,7,7h34.8c3.9,0,7-3.1,7-7V40.8
	C56.4,40.5,56.3,40.3,56.3,40z M32,73.6c-8.4,0-15.2-6.8-15.2-15.2S23.6,43.2,32,43.2S47.2,50,47.2,58.4
	C47.2,66.7,40.4,73.5,32,73.6z M42.4,58.1c0,1.5-1.2,2.8-2.8,2.8h-4.8v4.8c0,1.5-1.2,2.8-2.8,2.8s-2.8-1.2-2.8-2.8v-4.8h-4.8
	c-1.5,0-2.8-1.2-2.8-2.8s1.2-2.8,2.8-2.8h4.8v-4.8c0-1.5,1.2-2.8,2.8-2.8c1.5,0,2.8,1.2,2.8,2.8v4.8h4.8
	C41.2,55.4,42.4,56.6,42.4,58.1z M62.4,70.4l11.1,11.1c1.9,1.9,5,1.9,6.9,0s1.9-5,0-6.9l0,0L69.3,63.4c-2-1.8-5.1-1.7-6.9,0.3
	C60.7,65.6,60.7,68.5,62.4,70.4L62.4,70.4z M66,63.9c0.8,0,1.6,0.3,2.2,0.9l5.4,5.4l-4.5,4.5l-5.4-5.4c-1.2-1.2-1.2-3.2,0-4.5
	C64.4,64.2,65.2,63.9,66,63.9z M90.9,61.6L79.8,50.5c-1.9-1.9-5-1.9-6.9,0s-1.9,5,0,6.9L84,68.5c1.8,2,4.9,2.1,6.9,0.2
	c2-1.8,2.1-4.9,0.2-6.9C91.1,61.8,91,61.7,90.9,61.6z M87.3,68.1c-0.8,0-1.6-0.3-2.2-0.9l-5.4-5.4l4.5-4.5l5.4,5.4
	c1.2,1.2,1.2,3.2,0,4.5C89,67.8,88.2,68.1,87.3,68.1z"/>
</svg>
