<?xml version="1.0" encoding="utf-8"?>
<!-- Generator: Adobe Illustrator 25.0.1, SVG Export Plug-In . SVG Version: 6.00 Build 0)  -->
<svg version="1.1" id="Layer_1" xmlns="http://www.w3.org/2000/svg" xmlns:xlink="http://www.w3.org/1999/xlink" x="0px" y="0px"
	 viewBox="0 0 100 125" style="enable-background:new 0 0 100 125;" xml:space="preserve">
<style type="text/css">
	.st0{fill:#E95420;}
</style>
<path class="st0" d="M86.7,59.7c-0.1,0-0.2,0-0.3,0c-0.1,0-0.2,0-0.3,0H17.2c-0.2,0-0.4,0-0.5,0V35.3c0-1.8-1.5-3.3-3.3-3.3
	S10,33.5,10,35.3v50.6c0,0.8,0.7,1.5,1.5,1.5h3.6c0.9,0,1.5-0.7,1.5-1.5v-4.2c0.2,0,0.4,0,0.5,0h66.2v4.1c0,0.8,0.7,1.5,1.5,1.5h3.6
	c0.8,0,1.5-0.7,1.5-1.5v-8V63.6V63C90,61.2,88.5,59.7,86.7,59.7z"/>
<circle class="st0" cx="27.5" cy="51.2" r="6.1"/>
<path class="st0" d="M36.9,55.9c0,0.8,0.6,1.4,1.4,1.4h45.1l0,0c0-6.6-5.3-11.9-11.9-11.9H38.2c-0.8,0-1.4,0.6-1.4,1.4v9.1H36.9z"/>
<path class="st0" d="M18.5,24.2h7.1v7.1c0,0.4,0.3,0.6,0.6,0.6H29c0.4,0,0.6-0.3,0.6-0.6v-7.1h7.1c0.3,0,0.6-0.3,0.6-0.6v-2.8
	c0-0.4-0.3-0.6-0.6-0.6h-7.1v-7.1c0-0.4-0.3-0.6-0.6-0.6h-2.8c-0.4,0-0.6,0.3-0.6,0.6v7.1h-7.1c-0.4,0-0.6,0.3-0.6,0.6v2.8
	C17.8,24,18.1,24.2,18.5,24.2z"/>
</svg>
