<?xml version="1.0" encoding="utf-8"?>
<!-- Generator: Adobe Illustrator 25.0.1, SVG Export Plug-In . SVG Version: 6.00 Build 0)  -->
<svg version="1.1" id="Layer_1" xmlns="http://www.w3.org/2000/svg" xmlns:xlink="http://www.w3.org/1999/xlink" x="0px" y="0px"
	 viewBox="0 0 100 125" style="enable-background:new 0 0 100 125;" xml:space="preserve">
<style type="text/css">
	.st0{fill:#E95420;}
</style>
<path class="st0" d="M36.7,54.9c2,0.8,4.1,1.4,6.1,2L42.5,56c-3.9-4.8-6-10.7-6-16.8c-0.1-2.7,0.7-3.6,3.2-4.2
	c6.9-1.7,14.1-2.5,20.4-6.2c0.4-0.3,1.1-0.3,1.4,0.2c0.1,0.1,0.1,0.2,0.2,0.4c0.2,0.4,0.4,0.9,0.5,1.3c2.8,7.9,1.6,16.6-3.1,23.5
	c-0.6,0.8-1.2,1.7-1.9,2.7c6.9-1.4,12.5-4.3,16.3-10.1c0.9-1.1,0.9-2.6,0.1-3.7c-2.4-3.6-3.9-7.6-4.4-11.9c-0.8-5-2.6-9.6-6.7-12.9
	c-0.3-0.3-0.4-0.7-0.3-1.1c0.3-2.7,0.6-5.4,1-8c0.3-2.4-0.9-3.9-3.2-3.9C53.3,5,46.7,5,40.1,5.1c-1.6-0.2-3.1,1-3.3,2.6
	c0,0.3,0,0.7,0.1,1c0.3,2.9,0.8,5.8,1.1,8.8c0,0.6-0.2,1.3-0.5,1.8c-1.8,2-3.2,4.4-4,7c-1.5,6.1-4,11.9-7.3,17.3
	c-0.5,0.9-0.5,2,0.2,2.8C28.7,50.2,32.4,53.2,36.7,54.9z M44.4,11.6h3.8V7.8h3.5v3.8h4V15h-3.9v4h-3.4v-3.9h-4L44.4,11.6L44.4,11.6z
	 M86.8,81.8c0.5,2.8-1,4.3-3.3,5.7c-5.2,2.8-10.7,4.7-16.5,5.7c-8.4,1.8-17.1,2.2-25.7,1.3c-7.1-0.8-14.1-2.1-20.6-4.9
	c-2.1-1-4.1-2.1-6.1-3.3c-1-0.5-1.5-1.6-1.4-2.7c0.1-1.3,0-2.7-0.1-4c-0.3-3.4,1.1-6.8,3.8-9c5.3-4.3,11.3-7.8,17.7-10.2
	c0.8-0.3,1,0.1,1.4,0.6l4.5,5.9c1.9,2.5,4.7,4.1,7.7,4.4c0.5,0.1,1.1,0.1,1.6,0.1c1.3,0,2.7-0.2,4-0.5c2.4-0.7,4.5-2.1,6-4.1
	c1.4-1.9,2.8-3.7,4.1-5.6c0.3-0.7,1.1-1,1.8-0.7c0.1,0,0.1,0.1,0.2,0.1c5.6,2.3,10.9,5.2,15.8,8.8c3.9,2.6,6,7.3,5.3,12
	C86.8,81.4,86.8,81.6,86.8,81.8L86.8,81.8z"/>
</svg>
