<?xml version="1.0" encoding="utf-8"?>
<!-- Generator: Adobe Illustrator 25.0.1, SVG Export Plug-In . SVG Version: 6.00 Build 0)  -->
<svg version="1.1" id="Layer_1" xmlns="http://www.w3.org/2000/svg" xmlns:xlink="http://www.w3.org/1999/xlink" x="0px" y="0px"
	 viewBox="0 0 512 640" style="enable-background:new 0 0 512 640;" xml:space="preserve">
<style type="text/css">
	.st0{fill:#E95420;}
</style>
<g>
	<path class="st0" d="M244.3,151.2c-6.3-2-12.9-3.1-19.9-3.1c-8.9,0-17.4,1.8-25.1,5c-23.7,9.8-40.4,33.2-40.4,60.5v247.3
		c0,12.4,10,22.4,22.4,22.4h86.1c12.4,0,22.4-10,22.4-22.4V213.6c0-18.1-7.3-34.4-19.2-46.3C263.4,160,254.3,154.4,244.3,151.2z
		 M413.7,59.7c-15.9,3.3-84.2,18-102.6,21.9c-2.4,0.5-6.5,2.7-9.7,4.5v36.3c2.8,2.5,6.3,5.3,8.3,5.7c13.9,2.9,83.1,17.7,103.8,22.1
		c7.2,1.5,10.8-1.3,10.8-8.7c0-24.4,0-48.8,0-73.2C424.2,61.2,420.7,58.3,413.7,59.7z M232.2,88.7c2.9-5.6,4.5-12,4.5-18.8
		c0-22.8-18.5-41.2-41.2-41.2s-41.2,18.5-41.2,41.2c0,8.8,2.8,17,7.5,23.7c0.2,0.4,0.3,0.8,0.5,1.2c-0.9,0.4-1.7,0.9-2.7,1.3
		c-21.4,7.9-39.2,21.1-53.4,38.9c-6,7.5-11.3,15.6-16.4,23.8c-4.5,7.2-1.6,16.7,5.8,20.7c6.2,3.3,16.2,2.4,20.5-5.6
		c7.6-14,17.8-26.1,30.3-35.9c15.4-12.1,33-19.8,52.7-19.2v24.8c7.9-2.8,16.3-4.3,25.1-4.3c6.9,0,13.5,0.9,19.9,2.7v-23.2
		c23,0.1,27.5-0.1,48,0v-30C262.2,88.7,247.2,88.7,232.2,88.7z M195.5,86.2c-9,0-16.2-7.3-16.2-16.2s7.3-16.2,16.2-16.2
		s16.2,7.3,16.2,16.2S204.5,86.2,195.5,86.2z"/>
</g>
</svg>
