<?xml version="1.0" encoding="utf-8"?>
<!-- Generator: Adobe Illustrator 25.0.1, SVG Export Plug-In . SVG Version: 6.00 Build 0)  -->
<svg version="1.1" id="Layer_1" xmlns="http://www.w3.org/2000/svg" xmlns:xlink="http://www.w3.org/1999/xlink" x="0px" y="0px"
	 viewBox="0 0 64 80" style="enable-background:new 0 0 64 80;" xml:space="preserve">
<style type="text/css">
	.st0{fill:#E95420;}
</style>
<g>
	<path class="st0" d="M6,8.4C5.3,8.2,4.7,8.1,4,8V22c0.7-0.1,1.3-0.2,2-0.4V8.4z"/>
	<path class="st0" d="M47.7,55.7c-0.4,0.4-1,0.4-1.4,0l-3.5-3.5L35,55.7V60h24v-4.3l-7.8-3.5L47.7,55.7z"/>
	<path class="st0" d="M16.2,18.4c-0.3-0.4-0.6-0.8-0.9-1.2L15,16.7c-2.9,3.8-6,6.9-11,7.3v2C9.4,25.6,12.9,22.7,16.2,18.4z"/>
	<path class="st0" d="M8,9.3v11.5c0.7-0.4,1.4-0.9,2-1.4v-8.6C9.4,10.1,8.7,9.7,8,9.3z"/>
	<path class="st0" d="M12,12.7v4.5c0.6-0.7,1.2-1.5,1.8-2.3C13.2,14.2,12.6,13.4,12,12.7z"/>
	<path class="st0" d="M17.7,55.7c-0.4,0.4-1,0.4-1.4,0l-3.5-3.5L5,55.7V60h24v-4.3l-7.8-3.5L17.7,55.7z"/>
	<path class="st0" d="M45.5,48.8l-0.5,2.8l1.9,1.9l1.9-1.9l-0.5-2.8C47.5,49.1,46.5,49.1,45.5,48.8z"/>
	<path class="st0" d="M51.4,50.1l3.6,1.6V35c0-2.8-2.2-5-5-5h-6c-2.8,0-5,2.2-5,5v16.7l3.6-1.6c0.2-0.1,0.5-0.1,0.7,0l0.3-1.9
		C41.4,46.9,40,44.6,40,42v-6c0-0.5,0.3-0.9,0.8-1l9-2c0.3-0.1,0.5,0,0.8,0.2l3,2c0.3,0.2,0.4,0.5,0.5,0.8v6c0,2.6-1.4,4.9-3.6,6.1
		l0.3,1.9C50.9,50,51.2,50,51.4,50.1z"/>
	<path class="st0" d="M15.5,48.8l-0.5,2.8l1.9,1.9l1.9-1.9l-0.5-2.8C17.5,49.1,16.5,49.1,15.5,48.8z"/>
	<path class="st0" d="M20,30h-6c-2.8,0-5,2.2-5,5v0.6l1,1V36c0-0.4,0.2-0.7,0.6-0.9l4-2C14.8,33,15,33,15.2,33l8,2
		c0.4,0.1,0.8,0.5,0.8,1v0.6l1-1V35C25,32.2,22.8,30,20,30z"/>
	<path class="st0" d="M52,42v-5.5l-2.2-1.5L42,36.8V42c0,2.8,2.2,5,5,5S52,44.8,52,42z M46,41h-2v-2h2V41z M50,41h-2v-2h2V41z"/>
	<path class="st0" d="M45.2,18.4c-0.3-0.4-0.6-0.8-0.9-1.2L44,16.7c-3.1,4.1-6.4,7.3-12,7.3c-6.2,0-9.5-3.8-12.8-8.4L18,14.1
		c-0.4-0.6-0.9-1.2-1.3-1.8C13.2,7.6,9.6,4.4,4,4v2c5.5,0.4,8.6,4,11.8,8.4l1.1,1.5c0.4,0.6,0.9,1.2,1.3,1.8C22,22.7,25.8,26,32,26
		C38,26,41.7,23,45.2,18.4z"/>
	<path class="st0" d="M58,21.6c0.7,0.2,1.3,0.3,2,0.4V8c-0.7,0.1-1.3,0.2-2,0.4V21.6z"/>
	<path class="st0" d="M52,12.7c-0.6,0.7-1.2,1.5-1.8,2.3c0.6,0.8,1.2,1.6,1.8,2.3V12.7z"/>
	<path class="st0" d="M47.8,11.6c0.3,0.4,0.6,0.8,0.9,1.2l0.3,0.4c2.9-3.8,6-6.9,11-7.3V4C54.6,4.3,51.1,7.3,47.8,11.6z"/>
	<path class="st0" d="M54,10.7v8.6c0.6,0.5,1.3,1,2,1.4V9.3C55.3,9.7,54.6,10.1,54,10.7z"/>
	<path class="st0" d="M22,42v-5.2l-6.9-1.7L12,36.6V42c0,2.8,2.2,5,5,5S22,44.8,22,42z M16,41h-2v-2h2V41z M20,41h-2v-2h2V41z"/>
	<path class="st0" d="M37,9.3v11.5c0.7-0.4,1.4-0.9,2-1.4v-8.6C38.4,10.1,37.7,9.7,37,9.3z"/>
	<path class="st0" d="M29,8.4v13.2c0.7,0.2,1.3,0.3,2,0.4V8C30.3,8.1,29.7,8.2,29,8.4z"/>
	<path class="st0" d="M25,10.7v8.6c0.6,0.5,1.3,1,2,1.4V9.3C26.3,9.7,25.6,10.1,25,10.7z"/>
	<path class="st0" d="M33,8V22c0.7-0.1,1.3-0.2,2-0.4V8.4C34.3,8.2,33.7,8.1,33,8z"/>
	<path class="st0" d="M41,17.3c0.6-0.7,1.2-1.5,1.8-2.3c-0.6-0.8-1.2-1.6-1.8-2.3V17.3z"/>
	<path class="st0" d="M21.2,15c0.6,0.8,1.2,1.6,1.8,2.3v-4.5C22.4,13.4,21.8,14.2,21.2,15z"/>
	<path class="st0" d="M48.2,15.6L47,14.1c-0.4-0.6-0.9-1.2-1.3-1.8C42,7.3,38.2,4,32,4c-6,0-9.6,3-13.2,7.6c0.3,0.4,0.6,0.8,0.9,1.2
		l0.3,0.4C23.1,9.2,26.3,6,32,6c6.2,0,9.5,3.8,12.8,8.4l1.1,1.5c0.4,0.6,0.9,1.2,1.3,1.8c3.5,4.7,7.1,7.9,12.7,8.2v-2
		C54.5,23.6,51.4,19.9,48.2,15.6z"/>
	<path class="st0" d="M24,38v5h1c1.1,0,2-0.9,2-2v-1c0-1.1-0.9-2-2-2H24z"/>
	<path class="st0" d="M7,40v1c0,1.1,0.9,2,2,2h1v-5H9C7.9,38,7,38.9,7,40z"/>
</g>
</svg>
