<?xml version="1.0" encoding="utf-8"?>
<!-- Generator: Adobe Illustrator 25.0.1, SVG Export Plug-In . SVG Version: 6.00 Build 0)  -->
<svg version="1.1" xmlns="http://www.w3.org/2000/svg" xmlns:xlink="http://www.w3.org/1999/xlink" x="0px" y="0px"
	 viewBox="0 0 71 93.8" style="enable-background:new 0 0 71 93.8;" xml:space="preserve">
<style type="text/css">
	.st0{fill:#E95420;}
</style>
<g id="Layer_2">
</g>
<g id="Layer_1">
	<g>
		<g>
			<path class="st0" d="M35.5,49.2c3.5-3.2,18.6-12.3,11.2-20.1c-3.2-3.6-11.2-1.9-11.2,3.2c0-5.2-8-6.8-11.2-3.2
				C16.9,36.8,32,45.9,35.5,49.2z"/>
			<path class="st0" d="M70.3,51.1c-0.6-0.7-1.4-0.7-2.2-0.7c-1.2,0-2.8,0.4-4.5,1C60.9,50,53.1,53.8,47,55.1
				c-0.4-0.3-0.8-0.5-1.2-0.7c-0.9-0.3-1.9-0.4-3-0.4c-2.1,0-6.1,0.4-9.5,0.5c-9.4,0-15.8-1.5-24.8-5.7c-0.7-0.3-1.4,0-1.8,0.6
				c-0.3,0.7,0,1.4,0.6,1.8c9.1,4.3,16.8,6,25.9,6c2.7,0,7.2-0.5,9.5-0.5c1,0,2.5,0,2.6,0.5s-0.4,1.2-0.5,1.3
				c-1.6,1.7-6.1,3.9-12.2,3.9c-2.1,0-4.3-0.2-6.8-0.8c-0.7-0.2-1.4,0.3-1.6,1c-0.2,0.7,0.3,1.4,1,1.6h0c2.6,0.6,5.1,0.9,7.4,0.9
				c4.5,0,8.2-1,10.9-2.4c0.5-0.3,0.9-0.5,1.4-0.8c3.2-1,6.5-2.4,9.7-3.7c6-2.6,13.4-5.5,13.8-5c0.3,0.5-1.4,2.2-3.4,3.8
				c-6.9,5.9-22.1,14.3-27.1,15.1c-2.2,0.3-4.3,0.5-6.3,0.5c-11.4,0-20.7-4.8-29.6-9.3c-0.6-0.3-1.4-0.1-1.8,0.6
				c-0.3,0.6-0.1,1.4,0.6,1.8C9.5,69.8,19.3,75,31.5,75c2.2,0,4.4-0.2,6.7-0.5c4.2-0.8,12.1-4.7,19.2-9.1c3.5-2.2,6.8-4.5,9.3-6.6
				c1.2-1.1,2.3-2,3-3c0.7-1,1.3-1.8,1.3-3C71,52.3,70.8,51.6,70.3,51.1z"/>
			<path class="st0" d="M0.7,23.9c0.6,0.7,1.4,0.7,2.2,0.7c1.2,0,2.8-0.4,4.5-1c2.7,1.4,10.5-2.4,16.7-3.7c0.4,0.3,0.8,0.5,1.2,0.7
				c0.9,0.3,1.9,0.4,3,0.4c2.1,0,6.1-0.4,9.5-0.5c9.4,0,15.8,1.5,24.8,5.7c0.7,0.3,1.4,0,1.7-0.6c0.3-0.7,0-1.4-0.6-1.8
				c-9.1-4.3-16.8-6-25.9-6c-2.7,0-7.1,0.5-9.5,0.5c-0.9,0-2.5,0-2.6-0.5c-0.2-0.5,0.4-1.2,0.5-1.3c1.6-1.7,6.1-3.9,12.2-3.9
				c2.1,0,4.3,0.2,6.8,0.8c0.7,0.2,1.4-0.3,1.6-1c0.2-0.7-0.3-1.4-1-1.6h0c-2.6-0.6-5.1-0.9-7.4-0.9c-4.5,0-8.2,1-10.9,2.4
				c-0.5,0.3-0.9,0.5-1.4,0.8c-3.2,1-6.5,2.4-9.7,3.7c-6,2.6-13.4,5.5-13.8,5c-0.3-0.5,1.4-2.2,3.4-3.8c6.8-5.9,22-14.3,27.1-15.1
				c2.2-0.3,4.3-0.5,6.3-0.5c11.4,0,20.7,4.8,29.6,9.3c0.7,0.3,1.4,0.1,1.8-0.6c0.3-0.6,0.1-1.4-0.6-1.8C61.5,5.2,51.7,0,39.5,0
				c-2.2,0-4.4,0.2-6.7,0.5c-4.2,0.8-12.1,4.7-19.2,9.1c-3.5,2.2-6.8,4.5-9.3,6.6c-1.2,1.1-2.3,2-3,3c-0.7,1-1.3,1.8-1.3,3
				C0,22.7,0.2,23.4,0.7,23.9z"/>
		</g>
	</g>
</g>
</svg>
