<?xml version="1.0" encoding="utf-8"?>
<!-- Generator: Adobe Illustrator 25.0.1, SVG Export Plug-In . SVG Version: 6.00 Build 0)  -->
<svg version="1.1" id="Layer_1" xmlns="http://www.w3.org/2000/svg" xmlns:xlink="http://www.w3.org/1999/xlink" x="0px" y="0px"
	 viewBox="0 0 128 160" style="enable-background:new 0 0 128 160;" xml:space="preserve">
<style type="text/css">
	.st0{fill:#E95420;}
</style>
<path class="st0" d="M13.7,89.4c-1.1,0-2,0.8-2.1,1.9v1.1C0.4,72.4,1.8,47.7,15.2,29l-2.9-2.8C-2.4,46.1-4,72.8,8,94.3l-1-0.7
	c-0.9-0.6-2.2-0.3-2.8,0.6c-0.6,0.9-0.3,2.2,0.6,2.8l7.3,4.6c0.9,0.6,2.2,0.3,2.8-0.6c0.2-0.3,0.3-0.6,0.3-1l0.4-8.6
	C15.6,90.3,14.8,89.4,13.7,89.4C13.7,89.4,13.7,89.4,13.7,89.4z"/>
<path class="st0" d="M64,4c7.6,0,15.1,1.4,22.2,4.2c0.2-1.3,0.6-2.6,1.2-3.8c-15.1-5.9-31.8-5.9-46.8,0c0.6,1.2,1,2.5,1.2,3.8
	C48.9,5.4,56.4,4,64,4z"/>
<path class="st0" d="M20,28.2c1.1,1.1,2.9,1.1,4,0l11.2-10.9C37,15.5,38,13,38,10.5c0-2.5-1-5-2.8-6.8c-3.7-3.6-9.6-3.6-13.2,0l0,0
	l0,0c-3.7-3.6-9.6-3.6-13.2,0C7,5.5,6,8,6,10.5c0,2.5,1,5,2.8,6.8L20,28.2z M11.6,6.6c2.1-2.1,5.5-2.1,7.6,0L20.6,8
	c0.8,0.8,2,0.8,2.8,0l1.4-1.4c2.1-2.1,5.5-2.1,7.6,0c1,1,1.6,2.5,1.6,3.9c0,1.5-0.5,2.9-1.5,3.9L22,24.6L11.6,14.4
	c-1-1.1-1.6-2.5-1.6-3.9C10,9,10.5,7.6,11.6,6.6z"/>
<path class="st0" d="M104,28.2c1.1,1.1,2.9,1.1,4,0l11.2-10.9c1.8-1.8,2.8-4.2,2.8-6.8c0-2.5-1-5-2.8-6.8c-3.7-3.6-9.6-3.6-13.2,0
	l0,0l0,0c-3.7-3.6-9.6-3.6-13.2,0C91,5.5,90,8,90,10.5c0,2.5,1,5,2.8,6.8L104,28.2z M95.6,6.6c2.1-2.1,5.5-2.1,7.6,0l1.4,1.4
	c0.8,0.8,2,0.8,2.8,0l1.4-1.4c2.1-2.1,5.5-2.1,7.6,0c1,1,1.6,2.5,1.6,3.9c0,1.5-0.5,2.9-1.6,3.9L106,24.6L95.6,14.4
	c-1-1.1-1.6-2.5-1.6-3.9C94,9,94.5,7.6,95.6,6.6z"/>
<path class="st0" d="M121.3,88.5c-2.6-0.4-5.3-0.6-8-0.5c-1,0-2,0-3.2,0.1c-12.8,0.7-36,5.8-40.8,33.9c-0.2,0.9-0.3,1.8-0.4,2.7
	c0,0,0,0.1,0,0.1c-0.1,1,0.6,1.9,1.6,2.2c3.4,0.7,6.9,1,10.4,1c13.4,0,36.6-4.8,42-37.2C123.1,89.7,122.4,88.7,121.3,88.5
	C121.3,88.5,121.3,88.5,121.3,88.5L121.3,88.5z M104.7,116.9c-3,2.3-6.4,4-10,5.1c-4.5,1.4-9.1,2-13.8,2c-1.8,0-3.3-0.1-4.7-0.2
	l2.6-1.8l13.2-9.3c0.9-0.6,1.1-1.9,0.5-2.8c-0.6-0.9-1.9-1.1-2.8-0.5l-15.9,11.2c4.8-22.4,22.8-27.7,35.7-28.5
	c1.4-0.1,2.7-0.1,3.9-0.1c2.2,0,4,0.1,5.3,0.2C116.2,104.4,111,112.1,104.7,116.9z"/>
<circle class="st0" cx="98" cy="107" r="2"/>
<path class="st0" d="M115.8,26.2l-2.9,2.8c11.6,16,14.3,36.8,7.4,55.3c1,0.1,1.6,0.2,1.8,0.2c0.8,0.1,1.5,0.4,2.2,0.8
	C131.4,65.5,128.3,43.3,115.8,26.2L115.8,26.2z"/>
<path class="st0" d="M64,56.1c1.6-3.4,4.7-6,8.4-6.9c-0.6-5.5-4.2-9.7-8.4-9.7s-7.8,4.2-8.4,9.7C59.3,50.2,62.4,52.7,64,56.1z"/>
<path class="st0" d="M76.6,49.2c3.7,0.9,6.8,3.4,8.4,6.9c1.6-3.4,4.7-6,8.4-6.9c-0.6-5.5-4.2-9.7-8.4-9.7S77.2,43.7,76.6,49.2z"/>
<path class="st0" d="M43,56.1c1.6-3.4,4.7-6,8.4-6.9c-0.6-5.5-4.2-9.7-8.4-9.7s-7.8,4.2-8.4,9.7C38.3,50.2,41.4,52.7,43,56.1z"/>
<path class="st0" d="M82.9,35.7c-0.6-5.5-4.2-9.7-8.4-9.7s-7.8,4.2-8.4,9.7c3.7,0.9,6.8,3.4,8.4,6.9C76.1,39.2,79.2,36.7,82.9,35.7z
	"/>
<path class="st0" d="M53.5,26c-4.2,0-7.8,4.2-8.4,9.7c3.7,0.9,6.8,3.4,8.4,6.9c1.6-3.4,4.7-6,8.4-6.9C61.3,30.2,57.7,26,53.5,26z"/>
<path class="st0" d="M110.9,84l0.6-3h0.5c3.3,0,6-2.7,6-6v-2c0-3.3-2.7-6-6-6h-8.2c0.1-0.8,0.2-1.7,0.2-2.5c0-6.3-3.8-11.5-8.5-11.5
	S87,58.2,87,64.5c0,0.8,0.1,1.7,0.2,2.5h-4.4c0.1-0.8,0.2-1.7,0.2-2.5c0-6.3-3.8-11.5-8.5-11.5S66,58.2,66,64.5
	c0,0.8,0.1,1.7,0.2,2.5h-4.4c0.1-0.8,0.2-1.7,0.2-2.5c0-6.3-3.8-11.5-8.5-11.5S45,58.2,45,64.5c0,0.8,0.1,1.7,0.2,2.5h-4.4
	c0.1-0.8,0.2-1.7,0.2-2.5c0-6.3-3.8-11.5-8.5-11.5S24,58.2,24,64.5c0,0.8,0.1,1.7,0.2,2.5H16c-3.3,0-6,2.7-6,6v2c0,3.3,2.7,6,6,6
	h0.5l6,33.2c0.6,4.4,4.1,7.8,7.8,7.8h35C70.5,89.8,97.2,84.6,110.9,84z M16,77c-1.1,0-2-0.9-2-2v-2c0-1.1,0.9-2,2-2h96
	c1.1,0,2,0.9,2,2v2c0,1.1-0.9,2-2,2H16z M71,100h-5v5c0,1.1-0.9,2-2,2s-2-0.9-2-2v-5h-5c-1.1,0-2-0.9-2-2s0.9-2,2-2h5v-5
	c0-1.1,0.9-2,2-2s2,0.9,2,2v5h5c1.1,0,2,0.9,2,2S72.1,100,71,100z"/>
</svg>
